<?xml version="1.0" encoding="utf-8"?>
<!-- Generator: Adobe Illustrator 27.5.0, SVG Export Plug-In . SVG Version: 6.00 Build 0)  -->
<svg version="1.1"
	 id="svg1303" xmlns:inkscape="http://www.inkscape.org/namespaces/inkscape" xmlns:cc="http://creativecommons.org/ns#" xmlns:dc="http://purl.org/dc/elements/1.1/" xmlns:svg="http://www.w3.org/2000/svg" xmlns:sodipodi="http://sodipodi.sourceforge.net/DTD/sodipodi-0.dtd" xmlns:rdf="http://www.w3.org/1999/02/22-rdf-syntax-ns#"
	 xmlns="http://www.w3.org/2000/svg" xmlns:xlink="http://www.w3.org/1999/xlink" x="0px" y="0px" viewBox="0 0 500 500"
	 style="enable-background:new 0 0 500 500;" xml:space="preserve">
<g>
	<path d="M493.2,194.5c-4.9-13.5-14.5-20.1-28.8-20.3c-4.2-0.1-8.5-0.7-12.7-1.1c-23.1-2.1-46.2-4.2-69.2-6.4
		c-15.9-1.5-31.7-3-47.6-4.3c-3.6-0.3-5.5-1.9-6.9-5.2c-9.3-22.1-18.7-44.2-28.2-66.2c-8.4-19.6-16.5-39.3-25.3-58.7
		c-4.6-10.1-14-15.6-23.8-15.6v0.1c-5,0-9.9,1.5-14.5,4.5c-5.8,3.8-8.9,9.6-11.5,15.8c-16.6,39.1-33.6,78-49.8,117.2
		c-2.8,6.6-6.7,8.3-13,8.8c-19,1.4-38,3.2-57,5c-22.5,2-44.9,4.7-67.4,6.1c-14.4,0.9-24.3,6.7-29.3,20.4c-1.4,4.4-1,8.8,0,13.3
		c2.4,5.9,6,10.9,10.9,15.2c33.2,29,66.2,58.1,99.5,87c3,2.6,3.5,4.9,2.6,8.5c-10,43.4-19.8,86.8-29.6,130.2
		c-0.8,3.7-1.5,7.4-0.8,11.2c3.5,19.8,23.3,28.7,40.9,18.2c37.9-22.5,75.7-45.1,113.4-67.9c2.1-1.3,3.9-1.9,5.8-1.9v-0.3
		c1.7,0,3.5,0.6,5.4,1.9c37.5,23,75.2,45.4,112.9,68c6.1,3.7,12.6,5.9,19.8,4.4c16-3.2,24.5-17.2,20.6-34.1
		c-9.9-43.5-19.8-87.1-29.7-130.6c-0.6-2.6-0.6-4.6,1.8-6.7c32.6-28.4,65-57.1,97.7-85.5c5.8-5.1,11-10.4,13.8-17.7
		C494.4,203.4,494.6,199,493.2,194.5z M250.6,374.9c-1.5,0-2.7,0.1-3.9,0.3c-4.3,0.7-8.1,2.5-11.8,4.7
		c-34.8,20.8-69.7,41.6-104.5,62.4c-0.4,0.2-0.7,0.4-1.1,0.7c-1.8,1.2-4.2-0.3-3.9-2.5c0.7-4.1,1.9-8.1,2.8-12.1
		c8.2-36.3,16.4-72.7,24.8-108.9c2.6-11.4-0.3-20.9-9-28.6c-14.2-12.5-28.5-25-42.7-37.5c-14.8-13-32.8-28.9-48.4-42.7
		c-2.5-2.2-1.2-6.2,2.1-6.5l6-0.6c19-2,38-3.4,57-5.1c20.3-1.8,40.5-3.5,60.8-5.8c10.1-1.1,16.8-7.5,20.7-16.7
		c8.6-20.2,17.2-40.4,25.9-60.6c7.7-18,15.4-36,23.1-54c0.5-1.2,0.6-3.1,2.2-3.2V374.9z"/>
</g>
</svg>
