<?xml version="1.0" encoding="utf-8"?>
<!-- Generator: Adobe Illustrator 27.5.0, SVG Export Plug-In . SVG Version: 6.00 Build 0)  -->
<svg version="1.1"
	 id="svg1303" xmlns:inkscape="http://www.inkscape.org/namespaces/inkscape" xmlns:cc="http://creativecommons.org/ns#" xmlns:dc="http://purl.org/dc/elements/1.1/" xmlns:svg="http://www.w3.org/2000/svg" xmlns:sodipodi="http://sodipodi.sourceforge.net/DTD/sodipodi-0.dtd" xmlns:rdf="http://www.w3.org/1999/02/22-rdf-syntax-ns#"
	 xmlns="http://www.w3.org/2000/svg" xmlns:xlink="http://www.w3.org/1999/xlink" x="0px" y="0px" viewBox="0 0 500 500"
	 style="enable-background:new 0 0 500 500;" xml:space="preserve">
<sodipodi:namedview  bordercolor="#666666" borderopacity="1.0" id="base" inkscape:current-layer="layer1" inkscape:cx="35.718548" inkscape:cy="203.39339" inkscape:document-units="mm" inkscape:guide-bbox="true" inkscape:pageopacity="0.0" inkscape:pageshadow="2" inkscape:window-height="1009" inkscape:window-maximized="1" inkscape:window-width="1920" inkscape:window-x="-8" inkscape:window-y="-8" inkscape:zoom="1.5046797" pagecolor="#ffffff" showgrid="false" showguides="true" units="px">
	<sodipodi:guide  id="guide816" inkscape:locked="false" orientation="0,1" position="80.99058,65.965029"></sodipodi:guide>
	<sodipodi:guide  id="guide818" inkscape:locked="false" orientation="1,0" position="65.965178,49.107299"></sodipodi:guide>
</sodipodi:namedview>
<g>
	<path d="M142.3,330.2c0-38.6,0.1-77.1,0-115.7c-0.1-16.2,4.1-31,12.8-44.7c29.5-46.9,58.7-94,88.1-141C256.7,7.3,281-3.8,304.5,0.5
		c25.2,4.7,43.6,22.6,48.9,47.9c2.4,11.8,0.8,23.2-3.4,34.3c-12.5,33.1-24.8,66.3-37.2,99.4c-2.7,7.1-2.6,7.1,5.2,7.1
		c40.9,0,81.9-0.2,122.8,0.1c21.5,0.1,37.7,9.5,46.8,29.6c4.4,9.8,4.4,20,2.7,30.5c-8.1,52.1-15.9,104.3-24.2,156.4
		c-2.6,16.4-3.3,33.3-9.6,48.9c-10.7,26.5-36.5,44.1-65,44.2c-66.5,0.1-133,0.1-199.5,0c-29,0-49.6-20.7-49.7-49.9
		C142.3,409.6,142.3,369.9,142.3,330.2z"/>
	<path d="M0,338.5c0-37.3-0.1-74.5,0-111.8c0.1-23.5,14.9-43.1,37.5-47.5c15.4-3,31.5-3.1,46.9,0.4c21.7,5,35.5,24,35.6,49.1
		c0.3,73.2,0.3,146.5,0,219.7c-0.1,26.4-15.1,45.5-38.9,49.7c-13.8,2.5-28.2,2.4-42.1,0.1c-23.3-3.9-39-23.9-39.1-47.9
		C-0.1,413,0,375.8,0,338.5z"/>
</g>
</svg>
