<?xml version="1.0" encoding="utf-8"?>
<!-- Generator: Adobe Illustrator 27.5.0, SVG Export Plug-In . SVG Version: 6.00 Build 0)  -->
<svg version="1.1"
	 id="svg1566" xmlns:inkscape="http://www.inkscape.org/namespaces/inkscape" xmlns:cc="http://creativecommons.org/ns#" xmlns:dc="http://purl.org/dc/elements/1.1/" xmlns:svg="http://www.w3.org/2000/svg" xmlns:sodipodi="http://sodipodi.sourceforge.net/DTD/sodipodi-0.dtd" xmlns:rdf="http://www.w3.org/1999/02/22-rdf-syntax-ns#"
	 xmlns="http://www.w3.org/2000/svg" xmlns:xlink="http://www.w3.org/1999/xlink" x="0px" y="0px" viewBox="0 0 595.3 595.3"
	 style="enable-background:new 0 0 595.3 595.3;" xml:space="preserve">
<g>
	<path d="M99,295.1c0,105.5,75.4,194.1,177.1,209.1c68.9,10.1,128.8-9.3,179.1-57.3c14.4-13.7,30.2-19,49-11.3
		c27.8,11.3,35.3,47.2,14.3,68.5c-43.9,44.6-96.7,72.7-158.4,83.6c-65,11.4-127.4,2.9-185.7-27.8c-85.2-44.9-138.5-115-155.9-210.1
		C2.5,261.9,23,182,78.9,112.4C129,50.1,194.6,13.3,274.5,4.6c94.2-10.3,175.3,18.6,243,84.9c13.3,13,16.6,31.3,9.4,47.7
		c-7.1,16-23.4,26.2-40.9,25.4c-11.6-0.6-21.3-5.5-29.6-13.7c-28.7-28.3-62.6-47.1-102-56.1c-117-26.9-234.8,53.1-252.9,171.9
		C99.9,275.4,98.7,286.2,99,295.1z"/>
	<path d="M434.1,339.9c-2.6,0-5.2,0-7.8,0c-69,0-138.1,0-207.1,0c-19.1,0-34.3-10.6-40.8-28.2c-6-16.2-1.2-34.6,12.4-46.4
		c8-7,17.5-10.2,28.3-10.2c69,0.1,138.1,0,207.1,0c2.6,0,5.2,0,8.7,0c-2.2-4.7-5.9-7-8.7-10.1c-11.1-12.6-15.3-26.9-9.9-43.1
		c5.3-15.8,16.6-25.5,32.9-28.6c14.2-2.7,27.1,1.3,37.3,11.4c28,27.6,55.9,55.3,83.4,83.5c16.1,16.5,16.1,42.2,0.1,58.7
		c-27.6,28.3-55.6,56.3-83.9,83.8c-12.7,12.3-28.4,15.4-44.9,8.8c-16.7-6.7-25.9-19.8-27.1-37.7c-0.8-12,3.7-22.7,12.1-31.5
		c2.8-3,6.1-5.5,9.2-8.3C435,341.3,434.5,340.6,434.1,339.9z"/>
</g>
</svg>
