<?xml version="1.0" encoding="UTF-8" standalone="no"?>
<!-- Created with Inkscape (http://www.inkscape.org/) -->

<svg
   xmlns:dc="http://purl.org/dc/elements/1.1/"
   xmlns:cc="http://creativecommons.org/ns#"
   xmlns:rdf="http://www.w3.org/1999/02/22-rdf-syntax-ns#"
   xmlns:svg="http://www.w3.org/2000/svg"
   xmlns="http://www.w3.org/2000/svg"
   xmlns:sodipodi="http://sodipodi.sourceforge.net/DTD/sodipodi-0.dtd"
   xmlns:inkscape="http://www.inkscape.org/namespaces/inkscape"
   width="500"
   height="500"
   viewBox="0 0 132.29197 132.29167"
   version="1.1"
   id="svg1303"
   inkscape:version="0.92.4 (5da689c313, 2019-01-14)"
   sodipodi:docname="Icons_seen.svg">
  <defs
     id="defs1297" />
  <sodipodi:namedview
     id="base"
     pagecolor="#ffffff"
     bordercolor="#666666"
     borderopacity="1.0"
     inkscape:pageopacity="0.0"
     inkscape:pageshadow="2"
     inkscape:zoom="1.0105705"
     inkscape:cx="84.208758"
     inkscape:cy="136.94831"
     inkscape:document-units="mm"
     inkscape:current-layer="layer1"
     showgrid="false"
     units="px"
     inkscape:window-width="1920"
     inkscape:window-height="1017"
     inkscape:window-x="-8"
     inkscape:window-y="-8"
     inkscape:window-maximized="1" />
  <metadata
     id="metadata1300">
    <rdf:RDF>
      <cc:Work
         rdf:about="">
        <dc:format>image/svg+xml</dc:format>
        <dc:type
           rdf:resource="http://purl.org/dc/dcmitype/StillImage" />
        <dc:title />
      </cc:Work>
    </rdf:RDF>
  </metadata>
  <g
     inkscape:label="Ebene 1"
     inkscape:groupmode="layer"
     id="layer1"
     transform="translate(0,-164.70764)">
    <path
       style="opacity:1;fill:#000000;fill-opacity:1;stroke:none;stroke-width:0;stroke-linecap:round;stroke-linejoin:bevel;stroke-miterlimit:4;stroke-dasharray:none;stroke-dashoffset:0;stroke-opacity:1;paint-order:markers fill stroke"
       d="M 66.145984,191.3255 A 71.797122,73.404487 0 0 0 2.5025987,230.88314 71.797122,73.404487 0 0 0 66.145984,270.38145 71.797122,73.404487 0 0 0 129.78937,230.82387 71.797122,73.404487 0 0 0 66.145984,191.3255 Z m -4.921549,7.22394 a 32.724755,32.724755 0 0 0 -13.334395,5.17759 12.828107,12.828107 0 0 1 2.180958,-0.18652 12.828107,12.828107 0 0 1 12.828141,12.82816 12.828107,12.828107 0 0 1 -12.828141,12.82822 12.828107,12.828107 0 0 1 -12.828192,-12.82822 12.828107,12.828107 0 0 1 0.04509,-0.91548 32.724755,32.724755 0 0 0 -3.86581,15.39964 32.724755,32.724755 0 0 0 27.161922,32.24981 A 59.09757,60.420619 0 0 1 13.7604,230.8774 59.09757,60.420619 0 0 1 61.224664,198.54948 Z m 10.482345,0.0563 a 59.09757,60.420619 0 0 1 46.82502,32.22523 59.09757,60.420619 0 0 1 -47.393377,32.32497 32.724755,32.724755 0 0 0 27.73169,-32.30187 32.724755,32.724755 0 0 0 -27.163333,-32.24833 z"
       id="path1091"
       inkscape:connector-curvature="0" />
  </g>
</svg>
