<?xml version="1.0" encoding="UTF-8" standalone="no"?>
<!-- Created with Inkscape (http://www.inkscape.org/) -->

<svg
   xmlns:dc="http://purl.org/dc/elements/1.1/"
   xmlns:cc="http://creativecommons.org/ns#"
   xmlns:rdf="http://www.w3.org/1999/02/22-rdf-syntax-ns#"
   xmlns:svg="http://www.w3.org/2000/svg"
   xmlns="http://www.w3.org/2000/svg"
   xmlns:sodipodi="http://sodipodi.sourceforge.net/DTD/sodipodi-0.dtd"
   xmlns:inkscape="http://www.inkscape.org/namespaces/inkscape"
   width="500"
   height="500"
   viewBox="0 0 132.29197 132.29167"
   version="1.1"
   id="svg1303"
   inkscape:version="0.92.4 (5da689c313, 2019-01-14)"
   sodipodi:docname="Icons_Help.svg">
  <defs
     id="defs1297" />
  <sodipodi:namedview
     id="base"
     pagecolor="#ffffff"
     bordercolor="#666666"
     borderopacity="1.0"
     inkscape:pageopacity="0.0"
     inkscape:pageshadow="2"
     inkscape:zoom="1.0105705"
     inkscape:cx="58.993585"
     inkscape:cy="143.32456"
     inkscape:document-units="mm"
     inkscape:current-layer="layer1"
     showgrid="false"
     units="px"
     inkscape:window-width="1920"
     inkscape:window-height="1017"
     inkscape:window-x="-8"
     inkscape:window-y="-8"
     inkscape:window-maximized="1" />
  <metadata
     id="metadata1300">
    <rdf:RDF>
      <cc:Work
         rdf:about="">
        <dc:format>image/svg+xml</dc:format>
        <dc:type
           rdf:resource="http://purl.org/dc/dcmitype/StillImage" />
        <dc:title />
      </cc:Work>
    </rdf:RDF>
  </metadata>
  <g
     inkscape:label="Ebene 1"
     inkscape:groupmode="layer"
     id="layer1"
     transform="translate(0,-164.70764)">
    <g
       transform="matrix(6.2585232,0,0,6.2585232,-555.66096,-762.59652)"
       id="g1069"
       style="fill:#000000">
      <path
         style="opacity:1;fill:#000000;fill-opacity:1;stroke:none;stroke-width:0;stroke-linecap:round;stroke-linejoin:bevel;stroke-miterlimit:4;stroke-dasharray:none;stroke-dashoffset:0;stroke-opacity:1;paint-order:markers fill stroke"
         d="M 99.35362,148.32944 A 10.406119,10.406119 0 0 0 88.947542,158.73553 10.406119,10.406119 0 0 0 99.35362,169.14162 10.406119,10.406119 0 0 0 109.7597,158.73553 10.406119,10.406119 0 0 0 99.35362,148.32944 Z m 0.022,2.79535 c 0.58489,0 1.12588,0.073 1.62304,0.2192 0.51178,0.14622 0.95018,0.37308 1.31574,0.68016 0.38018,0.30706 0.67262,0.70157 0.87734,1.18411 0.21933,0.46791 0.32933,1.02372 0.32933,1.6671 0,0.4533 -0.0809,0.86261 -0.24176,1.22816 -0.16084,0.35094 -0.3655,0.67987 -0.61408,0.98694 -0.23396,0.30706 -0.48991,0.60692 -0.76774,0.89936 -0.26321,0.27783 -0.51176,0.57027 -0.74571,0.87734 -0.21932,0.30707 -0.39436,0.63601 -0.52597,0.98694 -0.1316,0.33631 -0.17549,0.72394 -0.13163,1.16261 h -2.829714 c -0.07311,-0.49715 -0.0583,-0.95035 0.04406,-1.35979 0.116978,-0.40941 0.277739,-0.78965 0.482453,-1.14059 0.204712,-0.35093 0.431586,-0.67246 0.680164,-0.96491 0.263203,-0.29244 0.511747,-0.57062 0.745707,-0.83381 0.23395,-0.27783 0.4238,-0.54119 0.57002,-0.78977 0.16086,-0.26321 0.24123,-0.53344 0.24123,-0.81125 0,-0.4533 -0.13908,-0.79704 -0.41691,-1.03099 -0.2632,-0.23397 -0.61381,-0.35083 -1.052474,-0.35083 -0.409426,0 -0.774845,0.0952 -1.096536,0.28528 -0.307068,0.19009 -0.606919,0.43123 -0.899364,0.72368 l -1.7767,-1.62304 c 0.511782,-0.59952 1.118345,-1.08235 1.820217,-1.4479 0.716494,-0.36557 1.506571,-0.548 2.369287,-0.548 z m -0.307306,11.16414 c 0.555636,0 1.016256,0.19727 1.381816,0.59205 0.38018,0.38019 0.57003,0.86249 0.57003,1.44737 0,0.57028 -0.18985,1.05311 -0.57003,1.4479 -0.36556,0.38018 -0.82618,0.57002 -1.381816,0.57002 -0.555651,0 -1.016262,-0.18984 -1.38182,-0.57002 -0.36556,-0.39479 -0.548536,-0.87762 -0.548536,-1.4479 0,-0.58488 0.182976,-1.06718 0.548536,-1.44737 0.365558,-0.39478 0.826169,-0.59205 1.38182,-0.59205 z"
         id="path1038"
         inkscape:connector-curvature="0" />
    </g>
  </g>
</svg>
