<?xml version="1.0" encoding="utf-8"?>
<!-- Generator: Adobe Illustrator 27.5.0, SVG Export Plug-In . SVG Version: 6.00 Build 0)  -->
<svg version="1.1"
	 id="svg1303" xmlns:inkscape="http://www.inkscape.org/namespaces/inkscape" xmlns:cc="http://creativecommons.org/ns#" xmlns:dc="http://purl.org/dc/elements/1.1/" xmlns:svg="http://www.w3.org/2000/svg" xmlns:sodipodi="http://sodipodi.sourceforge.net/DTD/sodipodi-0.dtd" xmlns:rdf="http://www.w3.org/1999/02/22-rdf-syntax-ns#"
	 xmlns="http://www.w3.org/2000/svg" xmlns:xlink="http://www.w3.org/1999/xlink" x="0px" y="0px" viewBox="0 0 500 500"
	 style="enable-background:new 0 0 500 500;" xml:space="preserve">
<g>
	<path d="M231.3,382c4.8,5.3,11.6,8.3,18.7,8.3c7.1,0,13.9-3,18.7-8.3l112.1-124.2c6.7-7.4,8.4-18,4.3-27.1
		c-4-9.1-13.1-14.9-23-14.9h-52.9V64.9c0-13.9-11.3-25.2-25.2-25.2h-68c-13.9,0-25.2,11.3-25.2,25.2v150.9h-52.9
		c-10,0-19,5.9-23,14.9c-4,9.1-2.3,19.7,4.3,27.1L231.3,382z"/>
	<path d="M436.1,408.8H63.9c-13.6,0-24.7,11.1-24.7,24.7c0,13.6,11.1,24.7,24.7,24.7h372.2c13.6,0,24.7-11.1,24.7-24.7
		C460.8,419.9,449.7,408.8,436.1,408.8z"/>
</g>
</svg>
