<?xml version="1.0" encoding="utf-8"?>
<!-- Generator: Adobe Illustrator 27.5.0, SVG Export Plug-In . SVG Version: 6.00 Build 0)  -->
<svg version="1.1"
	 id="svg1303" xmlns:inkscape="http://www.inkscape.org/namespaces/inkscape" xmlns:cc="http://creativecommons.org/ns#" xmlns:dc="http://purl.org/dc/elements/1.1/" xmlns:svg="http://www.w3.org/2000/svg" xmlns:sodipodi="http://sodipodi.sourceforge.net/DTD/sodipodi-0.dtd" xmlns:rdf="http://www.w3.org/1999/02/22-rdf-syntax-ns#"
	 xmlns="http://www.w3.org/2000/svg" xmlns:xlink="http://www.w3.org/1999/xlink" x="0px" y="0px" viewBox="0 0 500 500"
	 style="enable-background:new 0 0 500 500;" xml:space="preserve">
<sodipodi:namedview  bordercolor="#666666" borderopacity="1.0" id="base" inkscape:current-layer="layer1" inkscape:cx="125.63373" inkscape:cy="156.7016" inkscape:document-units="mm" inkscape:pageopacity="0.0" inkscape:pageshadow="2" inkscape:window-height="1017" inkscape:window-maximized="1" inkscape:window-width="1920" inkscape:window-x="-8" inkscape:window-y="-8" inkscape:zoom="0.85859018" pagecolor="#ffffff" showgrid="false" units="px">
	</sodipodi:namedview>
<g>
	<path d="M269,28.7c10.8,1.6,21.6,2.8,32.3,5.3c38.3,9.2,71.9,27.2,100.7,54.1c3.4,3.2,4.7,2.4,6.8-1.1c3.3-5.5,7.1-10.9,10.7-16.2
		c4.8-7,11.3-9.7,18.5-7.6c6.8,1.9,11.5,8.2,11.5,16.5c-0.1,26.3,0.3,52.7-0.5,79c-0.4,12.5-0.1,25-0.2,37.6
		c-0.1,14-11.1,21.3-23.9,15.6c-35.2-15.7-70.3-31.6-105.5-47.4c-7.7-3.5-11.8-10.1-10.8-16.9c1.1-7.8,6.9-13.2,15.6-14.4
		c4-0.6,8-1.2,11.9-1.8c0.9-0.1,2.3,0.2,2.6-1.1c0.3-1.2-1-1.6-1.8-2.2c-12.2-8.9-25.5-15.7-39.8-20.3
		c-72.7-23.2-148.9,9.9-181.6,78.9c-4.1,8.7-8.3,17-17.1,22.1c-13.7,8-30.1,6.6-42.2-3.8c-11.3-9.6-15.6-26.6-9.6-40.5
		c15.7-36.9,39.4-67.7,71.6-91.8c29.8-22.4,63.2-36.3,100-41.9c4.8-0.7,9.7-1.3,14.5-2C244.8,28.7,256.9,28.7,269,28.7z"/>
	<path d="M52.1,361.3c0.6-20,0.8-39,0.8-58c0-14,11.1-21.2,23.9-15.5c25.2,11.2,50.4,22.6,75.6,33.9c10.1,4.5,20.2,9,30.3,13.7
		c6.4,2.9,10.5,7.8,10.5,15c0,6.4-3.2,11.2-9,14.2c-3.8,2-8.1,2-12.1,2.8c-2.1,0.4-4.3,0.6-6.4,1c-0.9,0.1-2.3-0.2-2.6,1.1
		c-0.3,1.2,1,1.6,1.8,2.2c12.2,8.9,25.5,15.7,39.8,20.3c72.7,23.2,148.9-9.9,181.6-78.9c4.2-8.8,8.5-17.3,17.4-22.4
		c13.6-7.7,29.8-6.3,41.8,4c11.3,9.6,15.6,26.6,9.7,40.5c-15.7,36.9-39.4,67.7-71.6,91.8c-29.7,22.3-62.9,36.5-99.6,41.8
		c-57.8,8.3-110.9-4-159.1-36.9c-9.3-6.3-17.9-13.5-26.1-21.2c-2.1-2-3.3-2.1-4.9,0.5c-3.4,5.5-7.1,10.8-10.7,16.2
		c-5.7,8.5-12.2,11.4-19.9,8.9c-7.3-2.3-11.1-8.6-11.1-18.5C52.1,398.6,52.1,379.4,52.1,361.3z"/>
</g>
</svg>
