<?xml version="1.0" encoding="utf-8"?>
<!-- Generator: Adobe Illustrator 26.5.0, SVG Export Plug-In . SVG Version: 6.00 Build 0)  -->
<svg version="1.1" id="Layer_1" xmlns="http://www.w3.org/2000/svg" xmlns:xlink="http://www.w3.org/1999/xlink" x="0px" y="0px"
	 viewBox="0 0 500 500" style="enable-background:new 0 0 500 500;" xml:space="preserve">
<path d="M499.9,159L499.9,159c0.1-1.7,0.1-3.4,0.1-5.2c0-69.5-58.6-129.7-130.9-129.7c-52.9,0-98.4,34-119,77.4h0
	c-20.7-43.4-66.2-77.4-119-77.4C58.6,24.1,0,84.4,0,153.9c0,1.7,0.1,3.4,0.1,5.2h0c0,0-7.4,82.6,84.5,172.7
	c41.8,41.9,88.5,81.6,165.4,144.1c76.9-62.5,123.6-102.3,165.4-144.1C507.2,241.6,499.9,159,499.9,159z"/>
</svg>
