<?xml version="1.0" encoding="utf-8"?>
<!-- Generator: Adobe Illustrator 27.5.0, SVG Export Plug-In . SVG Version: 6.00 Build 0)  -->
<svg version="1.1"
	 id="svg1303" xmlns:inkscape="http://www.inkscape.org/namespaces/inkscape" xmlns:cc="http://creativecommons.org/ns#" xmlns:dc="http://purl.org/dc/elements/1.1/" xmlns:svg="http://www.w3.org/2000/svg" xmlns:sodipodi="http://sodipodi.sourceforge.net/DTD/sodipodi-0.dtd" xmlns:rdf="http://www.w3.org/1999/02/22-rdf-syntax-ns#"
	 xmlns="http://www.w3.org/2000/svg" xmlns:xlink="http://www.w3.org/1999/xlink" x="0px" y="0px" viewBox="0 0 500 500"
	 style="enable-background:new 0 0 500 500;" xml:space="preserve">
<sodipodi:namedview  bordercolor="#666666" borderopacity="1.0" id="base" inkscape:current-layer="layer1" inkscape:cx="61.891881" inkscape:cy="148.25167" inkscape:document-units="mm" inkscape:pageopacity="0.0" inkscape:pageshadow="2" inkscape:window-height="1017" inkscape:window-maximized="1" inkscape:window-width="1920" inkscape:window-x="-8" inkscape:window-y="-8" inkscape:zoom="1.0105705" pagecolor="#ffffff" showgrid="false" units="px">
	</sodipodi:namedview>
<g>
	<path d="M493.2,207.8c-2.7,7.3-7.9,12.7-13.8,17.7c-32.6,28.4-65.1,57-97.7,85.5c-2.4,2.1-2.4,4.1-1.8,6.7
		c9.9,43.5,19.8,87.1,29.7,130.6c3.8,16.8-4.6,30.8-20.6,34.1c-7.2,1.5-13.7-0.8-19.8-4.4c-37.7-22.5-75.4-45-113-67.7
		c-4.2-2.6-7.2-2.5-11.4,0.1c-37.7,22.8-75.6,45.3-113.4,67.9c-17.6,10.5-37.4,1.6-40.9-18.2c-0.7-3.8,0-7.5,0.8-11.2
		c9.8-43.4,19.7-86.8,29.6-130.2c0.8-3.7,0.4-5.9-2.6-8.5C85.1,281.1,52,252,18.8,223c-4.9-4.3-8.5-9.3-10.9-15.2
		c-1-4.4-1.4-8.8,0-13.3c4.9-13.7,14.9-19.5,29.3-20.4c22.5-1.4,44.9-4,67.4-6.1c19-1.7,38-3.6,57-5c6.3-0.5,10.3-2.2,13-8.8
		c16.3-39.2,33.2-78.2,49.8-117.2c2.6-6.2,5.7-12,11.5-15.8c13.6-8.9,31.4-4.1,38.3,11.1c8.8,19.4,17,39.1,25.3,58.7
		c9.4,22.1,18.9,44.1,28.2,66.2c1.4,3.3,3.3,4.9,6.9,5.2c15.9,1.3,31.7,2.8,47.6,4.3c23.1,2.1,46.2,4.2,69.2,6.4
		c4.2,0.4,8.5,1.1,12.7,1.1c14.3,0.2,23.9,6.8,28.8,20.3C494.5,199,494.3,203.4,493.2,207.8z"/>
</g>
</svg>
