<?xml version="1.0" encoding="utf-8"?>
<!-- Generator: Adobe Illustrator 27.5.0, SVG Export Plug-In . SVG Version: 6.00 Build 0)  -->
<svg version="1.1"
	 id="svg1303" xmlns:inkscape="http://www.inkscape.org/namespaces/inkscape" xmlns:cc="http://creativecommons.org/ns#" xmlns:dc="http://purl.org/dc/elements/1.1/" xmlns:svg="http://www.w3.org/2000/svg" xmlns:sodipodi="http://sodipodi.sourceforge.net/DTD/sodipodi-0.dtd" xmlns:rdf="http://www.w3.org/1999/02/22-rdf-syntax-ns#"
	 xmlns="http://www.w3.org/2000/svg" xmlns:xlink="http://www.w3.org/1999/xlink" x="0px" y="0px" viewBox="0 0 500 500"
	 style="enable-background:new 0 0 500 500;" xml:space="preserve">
<g>
	<path d="M249.8,406.5C142.2,401.9,59.2,355.3,3.6,261.9c-4.7-8-4.8-16.2-0.1-24.2c46.6-79.1,115-127.3,205.9-141.1
		c113.5-17.1,224.7,36.5,283.5,134.6c1,1.7,1.9,3.5,3,5.2c5.6,8.8,5.4,17.5,0.1,26.5c-29,50.1-69.2,88.2-121,113.9
		c-33.4,16.6-68.7,26.2-106,28.5C262.7,405.7,256.4,406.2,249.8,406.5z M139.6,249.7c0,61.4,49.1,110.5,110.6,110.5
		c61.2,0,110.3-49.1,110.4-110.2c0.1-61.5-48.9-110.7-110.4-110.7C188.7,139.2,139.6,188.3,139.6,249.7z"/>
	<path d="M174.9,249.8c0-42.1,33.2-75.3,75.4-75.2c41.7,0,75,33.3,75,75.2c0,42.1-33.3,75.3-75.5,75.3
		C208.1,324.9,174.9,291.6,174.9,249.8z"/>
</g>
</svg>
