<?xml version="1.0" encoding="utf-8"?>
<!-- Generator: Adobe Illustrator 27.5.0, SVG Export Plug-In . SVG Version: 6.00 Build 0)  -->
<svg version="1.1"
	 id="svg1303" xmlns:inkscape="http://www.inkscape.org/namespaces/inkscape" xmlns:cc="http://creativecommons.org/ns#" xmlns:dc="http://purl.org/dc/elements/1.1/" xmlns:svg="http://www.w3.org/2000/svg" xmlns:sodipodi="http://sodipodi.sourceforge.net/DTD/sodipodi-0.dtd" xmlns:rdf="http://www.w3.org/1999/02/22-rdf-syntax-ns#"
	 xmlns="http://www.w3.org/2000/svg" xmlns:xlink="http://www.w3.org/1999/xlink" x="0px" y="0px" viewBox="0 0 500 500"
	 style="enable-background:new 0 0 500 500;" xml:space="preserve">
<g>
	<path d="M175.5,421.6c-4,0-8,0-12.1,0c-13.9-3.4-21-13-24.1-26.3c-1-4.5-1.5-9-1.5-13.6c0-87.7,0-175.4,0-263.1
		c0-5.5,0.6-10.9,2.2-16.2c3.7-12.5,11-21.5,24.5-23.6c9-1.4,17.6,0.7,25.5,5c10.9,5.9,21.6,12.1,32.4,18.2
		c66.6,38.2,133.2,76.4,199.8,114.6c7.1,4.1,13.7,8.7,18.8,15.4c8.7,11.5,8.7,25,0,36.5c-5,6.6-11.7,11.3-18.8,15.4
		c-74,42.5-148.1,84.9-222.1,127.4C192.2,415.7,184.4,419.8,175.5,421.6z"/>
</g>
</svg>
