<?xml version="1.0" encoding="utf-8"?>
<!-- Generator: Adobe Illustrator 27.5.0, SVG Export Plug-In . SVG Version: 6.00 Build 0)  -->
<svg version="1.1"
	 id="svg1303" xmlns:inkscape="http://www.inkscape.org/namespaces/inkscape" xmlns:cc="http://creativecommons.org/ns#" xmlns:dc="http://purl.org/dc/elements/1.1/" xmlns:svg="http://www.w3.org/2000/svg" xmlns:sodipodi="http://sodipodi.sourceforge.net/DTD/sodipodi-0.dtd" xmlns:rdf="http://www.w3.org/1999/02/22-rdf-syntax-ns#"
	 xmlns="http://www.w3.org/2000/svg" xmlns:xlink="http://www.w3.org/1999/xlink" x="0px" y="0px" viewBox="0 0 500 500"
	 style="enable-background:new 0 0 500 500;" xml:space="preserve">
<g>
	<path d="M492.6,214.8c-2.7,7.3-7.9,12.7-13.8,17.7c-32.6,28.4-65.1,57-97.7,85.5c-2.4,2.1-2.4,4.1-1.8,6.7
		c9.9,43.5,19.8,87.1,29.7,130.6c3.8,16.8-4.6,30.8-20.6,34.1c-7.2,1.5-13.7-0.8-19.8-4.4c-37.7-22.5-75.4-45-113-67.7
		c-4.2-2.6-7.2-2.5-11.4,0.1c-37.7,22.8-75.6,45.3-113.4,67.9c-17.6,10.5-37.4,1.6-40.9-18.2c-0.7-3.8,0-7.5,0.8-11.2
		c9.8-43.4,19.7-86.8,29.6-130.2c0.8-3.7,0.4-5.9-2.6-8.5c-33.2-28.9-66.3-58.1-99.5-87c-4.9-4.3-8.5-9.3-10.9-15.2
		c-1-4.4-1.4-8.8,0-13.3c4.9-13.7,14.9-19.5,29.3-20.4c22.5-1.4,44.9-4,67.4-6.1c19-1.7,38-3.6,57-5c6.3-0.5,10.3-2.2,13-8.8
		c16.4-39.3,33.3-78.3,50-117.4c2.6-6.2,5.7-12,11.5-15.8c13.6-8.9,31.4-4.1,38.3,11.1c8.8,19.4,17,39.1,25.3,58.7
		c9.4,22.1,18.9,44.1,28.2,66.2c1.4,3.3,3.3,4.9,6.9,5.2c15.9,1.3,31.7,2.8,47.6,4.3c23.1,2.1,46.2,4.2,69.2,6.4
		c4.2,0.4,8.5,1.1,12.7,1.1c14.3,0.2,23.9,6.8,28.8,20.3C494,206,493.8,210.4,492.6,214.8z M50.8,211.9c-1.9,0.3-2.5,2.7-1.1,3.9
		c0.1,0.1,0.2,0.2,0.3,0.3c16.9,14.8,33.7,29.6,50.6,44.4c14.2,12.5,28.5,25,42.7,37.5c8.8,7.7,11.7,17.1,9,28.6
		c-8.4,36.3-16.6,72.6-24.8,108.9c-0.9,4.1-2.1,8.1-2.8,12.2c-0.3,2.1,2.1,3.6,3.8,2.4c0.4-0.3,0.8-0.5,1.1-0.8
		c34.9-20.8,69.7-41.6,104.5-62.4c3.7-2.2,7.4-4,11.8-4.7c8.6-1.4,15.6,2.2,22.7,6.4c34.1,20.5,68.3,40.9,102.5,61.3
		c1.2,0.7,2.6,2.6,4.1,1.3c1.1-1,0-2.7-0.3-4c-9-39.7-17.7-79.5-27-119.1c-3-12.8,0.1-22.8,9.9-31.3c24.3-21.1,48.5-42.4,72.7-63.6
		c6.7-5.8,13.3-11.7,20.2-17.8c1.4-1.2,0.7-3.6-1.2-3.8c0,0,0,0,0,0c-17.9-1.6-35.8-3.3-53.7-4.8c-22.6-2-45.2-4.2-67.9-5.9
		c-14.2-1.1-22.9-8-28.4-21.2c-15.4-37.2-31.5-74.1-47.3-111.1c-0.5-1.2-0.6-3.2-2.3-3.2s-1.8,2-2.3,3.2c-7.7,18-15.4,36-23.1,54
		c-8.6,20.2-17.2,40.4-25.9,60.6c-4,9.2-10.6,15.6-20.7,16.7c-20.2,2.3-40.5,4-60.8,5.8c-19,1.7-38,3.2-57,5.1
		C57.2,211,54.2,211.3,50.8,211.9z"/>
</g>
</svg>
