<?xml version="1.0" encoding="UTF-8" standalone="no"?>
<!-- Created with Inkscape (http://www.inkscape.org/) -->

<svg
   xmlns:dc="http://purl.org/dc/elements/1.1/"
   xmlns:cc="http://creativecommons.org/ns#"
   xmlns:rdf="http://www.w3.org/1999/02/22-rdf-syntax-ns#"
   xmlns:svg="http://www.w3.org/2000/svg"
   xmlns="http://www.w3.org/2000/svg"
   xmlns:sodipodi="http://sodipodi.sourceforge.net/DTD/sodipodi-0.dtd"
   xmlns:inkscape="http://www.inkscape.org/namespaces/inkscape"
   width="500"
   height="500"
   viewBox="0 0 132.29197 132.29167"
   version="1.1"
   id="svg1303"
   inkscape:version="0.92.4 (5da689c313, 2019-01-14)"
   sodipodi:docname="Icons_Lupe.svg">
  <defs
     id="defs1297" />
  <sodipodi:namedview
     id="base"
     pagecolor="#ffffff"
     bordercolor="#666666"
     borderopacity="1.0"
     inkscape:pageopacity="0.0"
     inkscape:pageshadow="2"
     inkscape:zoom="1.0105705"
     inkscape:cx="-23.955221"
     inkscape:cy="207.58555"
     inkscape:document-units="mm"
     inkscape:current-layer="layer1"
     showgrid="false"
     units="px"
     inkscape:window-width="1920"
     inkscape:window-height="1017"
     inkscape:window-x="-8"
     inkscape:window-y="-8"
     inkscape:window-maximized="1" />
  <metadata
     id="metadata1300">
    <rdf:RDF>
      <cc:Work
         rdf:about="">
        <dc:format>image/svg+xml</dc:format>
        <dc:type
           rdf:resource="http://purl.org/dc/dcmitype/StillImage" />
        <dc:title />
      </cc:Work>
    </rdf:RDF>
  </metadata>
  <g
     inkscape:label="Ebene 1"
     inkscape:groupmode="layer"
     id="layer1"
     transform="translate(0,-164.70764)">
    <path
       style="opacity:1;fill:#002130;fill-opacity:1;stroke:none;stroke-width:0;stroke-linecap:round;stroke-linejoin:bevel;stroke-miterlimit:4;stroke-dasharray:none;stroke-dashoffset:0;stroke-opacity:1;paint-order:markers fill stroke"
       d="m 15.593586,179.85791 c 18.094683,-18.09394 47.431291,-18.09355 65.52552,7.7e-4 16.496472,16.53809 18.102694,42.7696 3.747207,61.19678 17.821687,15.21024 24.490877,18.93088 42.171347,34.20969 4.41254,4.71717 4.29213,12.08299 -0.27223,16.65347 -4.57089,4.56126 -11.93421,4.68001 -16.65007,0.26874 l -8.4e-4,9.1e-4 -0.0173,-0.0152 C 94.335453,273.50898 90.211408,265.24542 76.792795,249.15281 58.360539,263.5048 32.12693,261.89037 15.593512,245.38662 c -18.0947127,-18.09455 -18.0947127,-47.43175 0,-65.52636 z m 7.908493,7.90846 c -13.7275962,13.72683 -13.7279739,35.98299 -8.23e-4,49.71019 13.72719,13.72714 35.983444,13.72678 49.710173,-8.2e-4 13.726834,-13.72692 13.726834,-35.98245 0,-49.70937 -13.726863,-13.72676 -35.982478,-13.72676 -49.70935,0 z"
       id="rect826"
       inkscape:connector-curvature="0"
       sodipodi:nodetypes="ccccccccccccccccc" />
  </g>
</svg>
