<?xml version="1.0" encoding="UTF-8" standalone="no"?>
<!-- Created with Inkscape (http://www.inkscape.org/) -->

<svg
   xmlns:dc="http://purl.org/dc/elements/1.1/"
   xmlns:cc="http://creativecommons.org/ns#"
   xmlns:rdf="http://www.w3.org/1999/02/22-rdf-syntax-ns#"
   xmlns:svg="http://www.w3.org/2000/svg"
   xmlns="http://www.w3.org/2000/svg"
   xmlns:sodipodi="http://sodipodi.sourceforge.net/DTD/sodipodi-0.dtd"
   xmlns:inkscape="http://www.inkscape.org/namespaces/inkscape"
   width="210mm"
   height="210mm"
   viewBox="0 0 210 210"
   version="1.1"
   id="svg1566"
   inkscape:version="0.92.4 (5da689c313, 2019-01-14)"
   sodipodi:docname="Icons_exit 05.svg">
  <defs
     id="defs1560" />
  <sodipodi:namedview
     id="base"
     pagecolor="#ffffff"
     bordercolor="#666666"
     borderopacity="1.0"
     inkscape:pageopacity="0.0"
     inkscape:pageshadow="2"
     inkscape:zoom="0.35355339"
     inkscape:cx="963.7258"
     inkscape:cy="291.01609"
     inkscape:document-units="mm"
     inkscape:current-layer="layer1"
     showgrid="false"
     inkscape:window-width="1920"
     inkscape:window-height="1009"
     inkscape:window-x="-8"
     inkscape:window-y="-8"
     inkscape:window-maximized="1" />
  <metadata
     id="metadata1563">
    <rdf:RDF>
      <cc:Work
         rdf:about="">
        <dc:format>image/svg+xml</dc:format>
        <dc:type
           rdf:resource="http://purl.org/dc/dcmitype/StillImage" />
        <dc:title></dc:title>
      </cc:Work>
    </rdf:RDF>
  </metadata>
  <g
     inkscape:label="Ebene 1"
     inkscape:groupmode="layer"
     id="layer1"
     transform="translate(0,-87)">
    <path
       style="opacity:1;fill:#000000;fill-opacity:1;stroke:none;stroke-width:2.35654187;stroke-linecap:round;stroke-linejoin:round;stroke-miterlimit:4;stroke-dasharray:none;stroke-dashoffset:0;stroke-opacity:1;paint-order:markers fill stroke"
       d="M 106.49932,87.901069 C 49.504302,87.900974 3.3006913,134.10459 3.3007713,191.0996 c 0,0.30098 0.003,0.60131 0.005,0.90167 v 0 c -0.003,0.29952 -0.006,0.59901 -0.006,0.89912 -8e-5,56.99502 46.2035307,103.19865 103.1985287,103.19854 23.01714,-0.0773 45.34783,-7.84709 63.44155,-22.07425 0,0 9.01874,-8.71006 2.40579,-16.41737 -6.61297,-7.70731 -19.11222,0.3185 -19.11222,0.3185 -13.60985,9.81394 -29.95596,15.11012 -46.73512,15.14236 -44.275428,0 -80.167758,-35.89234 -80.167758,-80.16778 0,-0.30097 0.003,-0.60148 0.006,-0.90166 h -5.2e-4 c -0.003,-0.29934 -0.006,-0.59901 -0.006,-0.89913 0,-44.27545 35.89234,-80.16777 80.167778,-80.16777 16.77916,0.0322 33.12527,5.32843 46.73512,15.14236 0,0 12.49925,8.02581 19.11222,0.3185 6.61295,-7.70732 -2.4058,-16.41739 -2.4058,-16.41739 C 151.84561,95.74815 129.51494,87.97828 106.4978,87.901069 Z m 54.30959,56.450221 -12.13663,11.69622 20.15864,20.93332 -93.932488,-1.4899 c -9.22763,-0.17349 -16.77655,6.07423 -16.92587,14.00904 l 0.002,0.002 c -0.0149,1.82673 -0.0235,3.40102 0,4.99598 l -0.002,0.002 c 0.14932,7.93483 7.69824,14.18254 16.92587,14.00905 l 93.932488,-1.48991 -20.15864,20.93333 12.13663,11.69622 34.0585,-35.35536 11.82982,-12.29208 h 0.003 l -9.9e-4,-0.002 9.9e-4,-9.9e-4 h -0.003 l -11.82982,-12.29208 z"
       id="path1405"
       inkscape:connector-curvature="0"
       sodipodi:nodetypes="cccccccsccsccsccscccccccccccccccccccccc" />
    <path
       style="opacity:1;fill:#000000;fill-opacity:1;stroke:none;stroke-width:2.39729571;stroke-linecap:round;stroke-linejoin:round;stroke-miterlimit:4;stroke-dasharray:none;stroke-dashoffset:0;stroke-opacity:1;paint-order:markers fill stroke"
       d="m 506.57967,92.503023 c -57.98068,-1e-4 -104.98336,47.002567 -104.98326,104.983257 1.9e-4,57.98049 47.00276,104.98284 104.98326,104.98273 23.42489,-0.0758 46.15146,-7.98387 57.83458,-18.08923 11.68313,-10.10537 12.15613,-18.62993 7.38675,-23.04107 v -0.002 c -4.7711,-4.41269 -12.38099,-1.9587 -17.69245,2.25103 -13.83538,9.99805 -30.45915,15.40285 -47.52888,15.4528 -45.04116,0 -81.55421,-36.51305 -81.5542,-81.55419 0,-45.04114 36.51307,-81.5542 81.5542,-81.5542 17.06933,0.0328 33.21884,5.19482 43.16812,12.86758 9.94929,7.67275 17.33418,9.17607 22.1053,4.76338 v -0.002 c 4.77116,-4.41278 5.55882,-12.9887 -0.73482,-18.60197 -18.40654,-14.47308 -41.1234,-22.377337 -64.5386,-22.455877 z m 55.24881,57.426467 -12.34652,11.8985 20.50728,21.29534 -95.55697,-1.51567 c -9.38721,-0.17649 -17.06669,6.17929 -17.21858,14.25133 l 0.003,0.002 c -0.15192,8.07203 7.28245,14.71295 16.66978,14.88953 l 95.22519,1.50947 -21.06332,20.28455 12.04579,12.49846 36.06808,-34.74464 0.005,0.005 12.34654,-11.89954 -12.03701,-12.50724 z m 35.17874,98.71801 0.69918,0.67386 c 0.13539,-0.22412 0.26991,-0.44874 0.4036,-0.67386 z"
       id="path1405-6"
       inkscape:connector-curvature="0"
       sodipodi:nodetypes="ccccccccsczccccccccccccccccccccccc" />
    <path
       style="opacity:1;fill:#000000;fill-opacity:1;stroke:none;stroke-width:2.39729571;stroke-linecap:round;stroke-linejoin:round;stroke-miterlimit:4;stroke-dasharray:none;stroke-dashoffset:0;stroke-opacity:1;paint-order:markers fill stroke"
       d="m 740.89945,94.730897 c -57.98068,-9.6e-5 -104.98334,47.002563 -104.98325,104.983253 1.9e-4,57.98049 47.00276,104.98284 104.98325,104.98274 23.42488,-0.0758 46.15145,-7.98387 64.5635,-22.46581 l -17.03461,-16.41553 c -13.83537,9.99805 -30.45916,15.40285 -47.52889,15.4528 -45.04113,0 -81.55419,-36.51306 -81.55419,-81.5542 0,-45.04114 36.51306,-81.55419 81.55419,-81.55419 17.06934,0.0328 33.69814,5.42058 47.54336,15.40423 l 16.99534,-16.3773 c -18.40663,-14.4732 -41.12349,-22.377447 -64.5387,-22.455993 z m 55.24882,57.426473 -12.34653,11.8985 20.50728,21.29534 -95.55696,-1.51567 c -9.38721,-0.17649 -17.06668,6.17928 -17.21858,14.25132 l 0.002,0.002 c -0.1519,8.07203 7.28245,14.71295 16.66978,14.88953 l 95.22519,1.50947 -21.06332,20.28455 12.04578,12.49846 36.06808,-34.74465 0.005,0.005 12.34653,-11.89953 -12.03699,-12.50725 z m 35.17873,98.718 0.69919,0.67386 c 0.13538,-0.22412 0.26991,-0.44874 0.40359,-0.67386 z"
       id="path1405-9"
       inkscape:connector-curvature="0"
       sodipodi:nodetypes="ccccccsccccccccccccccccccccccc" />
  </g>
</svg>
