<?xml version="1.0" encoding="utf-8"?>
<!-- Generator: Adobe Illustrator 27.5.0, SVG Export Plug-In . SVG Version: 6.00 Build 0)  -->
<svg version="1.1"
	 id="svg1303" xmlns:inkscape="http://www.inkscape.org/namespaces/inkscape" xmlns:cc="http://creativecommons.org/ns#" xmlns:dc="http://purl.org/dc/elements/1.1/" xmlns:svg="http://www.w3.org/2000/svg" xmlns:sodipodi="http://sodipodi.sourceforge.net/DTD/sodipodi-0.dtd" xmlns:rdf="http://www.w3.org/1999/02/22-rdf-syntax-ns#"
	 xmlns="http://www.w3.org/2000/svg" xmlns:xlink="http://www.w3.org/1999/xlink" x="0px" y="0px" viewBox="0 0 500 500"
	 style="enable-background:new 0 0 500 500;" xml:space="preserve">
<g>
	<path d="M492.4,462.2c-1,2.5-1.8,5.1-3,7.6C478,495,448.2,501.9,427.2,484c-1.8-1.5-3.5-3.2-5.2-4.9
		c-34.1-34.8-68.3-69.5-102.3-104.4c-3.3-3.4-5.6-3.6-9.5-1c-30.5,20.3-64.1,31.1-100.6,32c-60.1,1.5-110.4-20.8-151.1-65.6
		c-28.2-31-45.1-67.8-49.5-109.8C1.6,161.2,23.6,102.8,74.3,56.1c28.7-26.4,62.7-42.4,101-47.9c52.7-7.6,101,4.5,143.9,36.5
		c43.7,32.6,70,76.6,78.4,131c7.1,45.8-1.1,89.2-23.7,129.6c-3.7,6.6-3.8,6.6,1.5,11.9c33.3,34,66.6,68,100.1,101.9
		c7.6,7.7,14.2,15.9,16.9,26.7C494.1,451.5,493.6,456.9,492.4,462.2z M335.2,205.9c0.5-72.8-58.3-134.2-131.9-134
		C132.9,72,72,129.3,72,206c0,74.8,58.1,134.2,131.7,134.2C278.8,340.2,335.8,278.1,335.2,205.9z"/>
</g>
</svg>
