<?xml version="1.0" encoding="UTF-8" standalone="no"?>
<svg
   viewBox="0 0 512 512"
   version="1.1"
   id="svg1"
   docname="icon-multi-select.svg"
   inkscape:version="1.4.2 (ebf0e940d0, 2025-05-08)"
   xmlns:inkscape="http://www.inkscape.org/namespaces/inkscape"
   xmlns="http://www.w3.org/2000/svg"
   xmlns:svg="http://www.w3.org/2000/svg">
  <defs
     id="defs1" />
  <namedview
     id="namedview1"
     pagecolor="#ffffff"
     bordercolor="#000000"
     borderopacity="0.25"
     inkscape:showpageshadow="2"
     inkscape:pageopacity="0.0"
     inkscape:pagecheckerboard="0"
     inkscape:deskcolor="#d1d1d1"
     inkscape:zoom="2.0722656"
     inkscape:cx="255.75872"
     inkscape:cy="255.75872"
     inkscape:window-width="2560"
     inkscape:window-height="1407"
     inkscape:window-x="1920"
     inkscape:window-y="33"
     inkscape:window-maximized="1"
     inkscape:current-layer="svg1" />
  <!--! Font Awesome Free 6.1.1 by @fontawesome - https://fontawesome.com License - https://fontawesome.com/license/free (Icons: CC BY 4.0, Fonts: SIL OFL 1.1, Code: MIT License) Copyright 2022 Fonticons, Inc. -->
  <path
     d="m 55.494816,230.93685 c 0,-27.64778 22.43935,-50.12629 50.126294,-50.12629 h 50.1263 v 100.25259 c 0,41.51084 32.9737,75.18944 75.18944,75.18944 h 100.25259 v 50.1263 c 0,27.64778 -22.47851,50.12629 -50.12629,50.12629 H 105.62111 c -27.686944,0 -50.126294,-22.47851 -50.126294,-50.12629 z M 230.93685,331.18944 c -27.64778,0 -50.12629,-22.47851 -50.12629,-50.12629 V 105.62111 c 0,-27.686944 22.47851,-50.126294 50.12629,-50.126294 h 175.44204 c 27.64778,0 50.12629,22.43935 50.12629,50.126294 v 175.44204 c 0,27.64778 -22.47851,50.12629 -50.12629,50.12629 z"
     id="path1"
     style="stroke-width:0.783223" />
</svg>
