<?xml version="1.0" encoding="utf-8"?>
<!-- Generator: Adobe Illustrator 27.5.0, SVG Export Plug-In . SVG Version: 6.00 Build 0)  -->
<svg version="1.1"
	 id="svg1303" xmlns:inkscape="http://www.inkscape.org/namespaces/inkscape" xmlns:cc="http://creativecommons.org/ns#" xmlns:dc="http://purl.org/dc/elements/1.1/" xmlns:svg="http://www.w3.org/2000/svg" xmlns:sodipodi="http://sodipodi.sourceforge.net/DTD/sodipodi-0.dtd" xmlns:rdf="http://www.w3.org/1999/02/22-rdf-syntax-ns#"
	 xmlns="http://www.w3.org/2000/svg" xmlns:xlink="http://www.w3.org/1999/xlink" x="0px" y="0px" viewBox="0 0 500 500"
	 style="enable-background:new 0 0 500 500;" xml:space="preserve">
<g>
	<path d="M147.7,416.2c-8.7-3.4-11.9-8.1-11.9-17.5c0-53.5,0-107,0-160.5c0-9.3-4.2-15-12.6-16.7c-1.7-0.4-3.4-0.4-5.2-0.4
		c-8.3,0-16.6,0-25,0c-7.3,0-12.9-3-16-9.5c-3.1-6.6-2.4-13,2.3-18.8c21.1-26.4,42.1-52.9,63.2-79.4c5.7-7.2,11.4-14.4,17.1-21.6
		c3.2-4.1,7-7.4,12.5-7.9c6.6-0.6,11.4,2.3,15.3,7.3c5.7,7.4,11.5,14.9,17.3,22.3c20.5,26.4,40.9,52.8,61.5,79
		c7.2,9.2,4.3,19.8-2,24.9c-3.2,2.6-6.8,3.6-10.8,3.6c-8.6,0-17.3,0-25.9,0c-10.6,0.1-16.2,5.6-16.2,16.2
		c0,53.1-0.1,106.1,0.1,159.2c0,9.6-3.4,16.3-12.6,19.7C181.9,416.2,164.8,416.2,147.7,416.2z"/>
</g>
<g>
	<path d="M369.5,83.8c8.7,3.4,11.9,8.1,11.9,17.5c0,53.5,0,106.9,0,160.4c0,9.3,4.2,15,12.6,16.7c1.7,0.3,3.4,0.4,5.2,0.4
		c8.3,0,16.6,0,25,0c7.3,0,12.9,3,16,9.5c3.1,6.6,2.4,13-2.3,18.8c-21.1,26.4-42.1,52.9-63.2,79.3c-5.7,7.2-11.4,14.4-17.1,21.6
		c-3.2,4.1-6.9,7.4-12.5,7.9c-6.6,0.6-11.4-2.3-15.3-7.3c-5.7-7.4-11.5-14.8-17.3-22.3c-20.5-26.4-40.8-52.8-61.5-79
		c-7.2-9.2-4.3-19.8,2-24.9c3.2-2.6,6.8-3.6,10.8-3.6c8.6,0,17.3,0,25.9,0c10.6-0.1,16.2-5.6,16.2-16.2c0-53,0.1-106.1-0.1-159.1
		c0-9.6,3.4-16.3,12.6-19.7C335.4,83.8,352.5,83.8,369.5,83.8z"/>
</g>
</svg>
