<?xml version="1.0" encoding="utf-8"?>
<!-- Generator: Adobe Illustrator 27.5.0, SVG Export Plug-In . SVG Version: 6.00 Build 0)  -->
<svg version="1.1"
	 id="svg1303" xmlns:dc="http://purl.org/dc/elements/1.1/" xmlns:sodipodi="http://sodipodi.sourceforge.net/DTD/sodipodi-0.dtd" xmlns:svg="http://www.w3.org/2000/svg" xmlns:inkscape="http://www.inkscape.org/namespaces/inkscape" xmlns:rdf="http://www.w3.org/1999/02/22-rdf-syntax-ns#" xmlns:cc="http://creativecommons.org/ns#"
	 xmlns="http://www.w3.org/2000/svg" xmlns:xlink="http://www.w3.org/1999/xlink" x="0px" y="0px" viewBox="0 0 500 500"
	 style="enable-background:new 0 0 500 500;" xml:space="preserve">
<g>
	<path d="M7.5,207.8c2.8,7.3,8,12.6,13.8,17.7C54,253.9,86.4,282.6,119,311c2.4,2.1,2.4,4.1,1.8,6.7c-9.9,43.5-19.8,87.1-29.7,130.6
		c-3.9,16.9,4.6,30.9,20.6,34.1c7.2,1.5,13.7-0.7,19.8-4.4c37.7-22.6,75.4-45,112.9-68c1.9-1.3,3.7-1.9,5.4-1.9v0.3
		c1.9,0,3.7,0.6,5.8,1.9c37.7,22.8,75.5,45.4,113.4,67.9c17.6,10.5,37.4,1.6,40.9-18.2c0.7-3.8,0-7.5-0.8-11.2
		c-9.8-43.4-19.6-86.8-29.6-130.2c-0.9-3.6-0.4-5.9,2.6-8.5c33.3-28.9,66.3-58,99.5-87c4.9-4.3,8.5-9.3,10.9-15.2
		c1-4.5,1.4-8.9,0-13.3c-5-13.7-14.9-19.5-29.3-20.4c-22.5-1.4-44.9-4.1-67.4-6.1c-19-1.8-38-3.6-57-5c-6.3-0.5-10.2-2.2-13-8.8
		c-16.2-39.2-33.2-78.1-49.8-117.2c-2.6-6.2-5.7-12-11.5-15.8c-4.6-3-9.5-4.5-14.5-4.5v-0.1c-9.8,0-19.2,5.5-23.8,15.6
		c-8.8,19.4-16.9,39.1-25.3,58.7c-9.5,22-18.9,44.1-28.2,66.2c-1.4,3.3-3.3,4.9-6.9,5.2c-15.9,1.3-31.7,2.8-47.6,4.3
		c-23,2.2-46.1,4.3-69.2,6.4c-4.2,0.4-8.5,1-12.7,1.1C22,174.4,12.4,181,7.5,194.5C6.1,199,6.3,203.4,7.5,207.8z M250,374.9V58.2
		c1.6,0.1,1.7,2,2.2,3.2c7.7,18,15.4,36,23.1,54c8.7,20.2,17.3,40.4,25.9,60.6c3.9,9.2,10.6,15.6,20.7,16.7
		c20.3,2.3,40.5,4,60.8,5.8c19,1.7,38,3.1,57,5.1l6,0.6c3.3,0.3,4.6,4.3,2.1,6.5c-15.6,13.8-33.6,29.7-48.4,42.7
		c-14.2,12.5-28.5,25-42.7,37.5c-8.7,7.7-11.6,17.2-9,28.6c8.4,36.2,16.6,72.6,24.8,108.9c0.9,4,2.1,8,2.8,12.1
		c0.3,2.2-2.1,3.7-3.9,2.5c-0.4-0.3-0.7-0.5-1.1-0.7c-34.8-20.8-69.7-41.6-104.5-62.4c-3.7-2.2-7.5-4-11.8-4.7
		C252.8,375,251.6,374.9,250,374.9L250,374.9z"/>
</g>
</svg>
