<?xml version="1.0" encoding="utf-8"?>
<svg viewBox="0 0 500 500" style="enable-background:new 0 0 500 500;" xmlns="http://www.w3.org/2000/svg">
  <g style="" transform="matrix(0.9999999999999999, 0, 0, -0.9999999999999999, 0, 497.9000392526395)">
    <path d="M231.3,382c4.8,5.3,11.6,8.3,18.7,8.3c7.1,0,13.9-3,18.7-8.3l112.1-124.2c6.7-7.4,8.4-18,4.3-27.1 c-4-9.1-13.1-14.9-23-14.9h-52.9V64.9c0-13.9-11.3-25.2-25.2-25.2h-68c-13.9,0-25.2,11.3-25.2,25.2v150.9h-52.9 c-10,0-19,5.9-23,14.9c-4,9.1-2.3,19.7,4.3,27.1L231.3,382z"/>
  </g>
</svg>