<?xml version="1.0" encoding="utf-8"?>
<svg viewBox="0 0 500 500" style="enable-background:new 0 0 500 500;" xmlns="http://www.w3.org/2000/svg">
  <path d="M 408.514 358.563 L 303.835 255.003 L 408.441 149.115 C 424.1 133.406 424.1 107.662 408.441 91.953 C 392.783 76.245 367.12 76.245 351.463 91.953 L 246.857 197.841 L 142.323 91.881 C 126.665 76.172 101.002 76.172 85.344 91.881 C 69.613 107.662 69.613 133.334 85.272 149.115 L 189.805 255.003 L 84.401 359.291 C 68.743 375 68.743 400.744 84.401 416.453 C 100.06 432.161 125.722 432.161 141.381 416.453 L 246.784 312.165 L 351.39 415.726 C 367.048 431.434 392.711 431.434 408.369 415.726 C 424.172 400.017 424.172 374.345 408.514 358.563 Z" style="" transform="matrix(0.9999999999999999, 0, 0, 0.9999999999999999, 0, 0)"/>
</svg>