<?xml version="1.0" encoding="utf-8"?>
<svg viewBox="0 0 500 500" style="enable-background:new 0 0 500 500;" xmlns="http://www.w3.org/2000/svg">
  <g style="" transform="matrix(0.9999999999999999, 0, 0, -0.9999999999999999, 0, 497.9000392526395)">
    <path d="M 231.3 48 C 236.1 42.7 242.9 39.7 250 39.7 C 257.1 39.7 263.9 42.7 268.7 48 L 380.8 172.2 C 387.5 179.6 389.2 190.2 385.1 199.3 C 381.1 208.4 372 214.2 362.1 214.2 L 309.2 214.2 L 309.2 365.1 C 309.2 379 297.9 390.3 284 390.3 L 216 390.3 C 202.1 390.3 190.8 379 190.8 365.1 L 190.8 214.2 L 137.9 214.2 C 127.9 214.2 118.9 208.3 114.9 199.3 C 110.9 190.2 112.6 179.6 119.2 172.2 L 231.3 48 Z" style=""/>
  </g>
</svg>