<?xml version="1.0" encoding="utf-8"?>
<svg version="1.1" id="Layer_1" xmlns="http://www.w3.org/2000/svg" xmlns:xlink="http://www.w3.org/1999/xlink" x="0px" y="0px"
	 viewBox="131 -131 512 512" style="enable-background:new 131 -131 512 512;" xml:space="preserve">
<g id="XMLID_2_">
	<path id="XMLID_4_" d="M640.9-116.5c3.7,10.2,2.8,18.6-4.7,25.1L456.6,87.4v270c0,10.2-4.7,17.7-14,21.4c-2.8,0.9-6.5,1.9-9.3,1.9
		c-6.5,0-12.1-1.9-16.8-6.5L323.4,281c-4.7-4.7-6.5-10.2-6.5-16.8V87.4L138.2-91.4c-7.4-7.4-9.3-15.8-4.7-25.1
		c3.7-9.3,11.2-14,21.4-14h464.5C629.7-131.4,636.2-126.7,640.9-116.5z"/>
</g>
</svg>
