<?xml version="1.0" encoding="utf-8"?>
<!-- Generator: Adobe Illustrator 27.5.0, SVG Export Plug-In . SVG Version: 6.00 Build 0)  -->
<svg version="1.1"
	 id="svg1303" xmlns:inkscape="http://www.inkscape.org/namespaces/inkscape" xmlns:cc="http://creativecommons.org/ns#" xmlns:dc="http://purl.org/dc/elements/1.1/" xmlns:svg="http://www.w3.org/2000/svg" xmlns:sodipodi="http://sodipodi.sourceforge.net/DTD/sodipodi-0.dtd" xmlns:rdf="http://www.w3.org/1999/02/22-rdf-syntax-ns#"
	 xmlns="http://www.w3.org/2000/svg" xmlns:xlink="http://www.w3.org/1999/xlink" x="0px" y="0px" viewBox="0 0 500 500"
	 style="enable-background:new 0 0 500 500;" xml:space="preserve">
<sodipodi:namedview  bordercolor="#666666" borderopacity="1.0" id="base" inkscape:current-layer="layer1" inkscape:cx="-97.380081" inkscape:cy="261.09215" inkscape:document-units="mm" inkscape:guide-bbox="true" inkscape:pageopacity="0.0" inkscape:pageshadow="2" inkscape:window-height="1017" inkscape:window-maximized="1" inkscape:window-width="1920" inkscape:window-x="-8" inkscape:window-y="-8" inkscape:zoom="0.85859018" pagecolor="#ffffff" showgrid="false" showguides="true" units="px">
	<sodipodi:guide  id="guide1072" inkscape:locked="false" orientation="1,0" position="-221.87586,143.2945"></sodipodi:guide>
</sodipodi:namedview>
<path d="M431.9,194.4H305.6V68.1c0-30.6-25-55.6-55.6-55.6h0c-30.6,0-55.6,25-55.6,55.6v126.3H68.1c-30.6,0-55.6,25-55.6,55.6v0
	c0,30.6,25,55.6,55.6,55.6h126.3v126.3c0,30.6,25,55.6,55.6,55.6h0c30.6,0,55.6-25,55.6-55.6V305.6h126.3c30.6,0,55.6-25,55.6-55.6
	v0C487.5,219.4,462.5,194.4,431.9,194.4z"/>
</svg>
