<?xml version="1.0" encoding="utf-8"?>
<!DOCTYPE svg PUBLIC "-//W3C//DTD SVG 20010904//EN" "http://www.w3.org/TR/2001/REC-SVG-20010904/DTD/svg10.dtd">
<svg version="1.0" width="960pt" height="960pt" viewBox="0 0 960 960" preserveAspectRatio="xMidYMid meet" xmlns="http://www.w3.org/2000/svg">
  <g transform="translate(0,960)scale(.075,.075)">
    <path id="path1" d="M 740 -10481 c -77 24 -152 94 -170 160 -6 23 -10 376 -10 946 l 0 910 24 50 c 28 59 66 97 121 122 38 17 268 18 5620 21 3923 1 5595 -1 5632 -8 70 -15 124 -56 157 -121 l 27 -54 0 -920 c 0 -637 -4 -932 -11 -958 -17 -58 -84 -122 -150 -141 -49 -15 -544 -16 -5635 -15 -3069 0 -5591 4 -5605 8 z M 9615 -7400 c -11 4 -31 20 -45 35 l -25 27 -3 889 c -3 978 -5 935 57 972 27 16 117 17 1253 17 1321 0 1252 3 1293 -54 20 -27 20 -43 20 -919 0 -860 -1 -893 -19 -920 -41 -60 37 -57 -1293 -56 -670 0 -1227 4 -1238 9 z M 3658 -7384 c -61 32 -58 -10 -58 959 0 973 -3 928 60 960 25 13 178 15 1250 15 1072 0 1225 -2 1250 -15 63 -32 60 13 60 -960 0 -973 3 -928 -60 -960 -25 -13 -178 -15 -1252 -15 -1062 1 -1227 3 -1250 16 z M 6551 -7374 c -17 14 -35 42 -41 62 -6 24 -10 339 -10 892 0 826 1 856 20 898 35 78 -60 73 1315 70 l 1225 -3 32 -33 33 -32 3 -895 c 2 -788 0 -899 -13 -925 -33 -64 48 -60 -1304 -60 l -1229 0 -31 26 z M 616 -7369 c -59 46 -56 0 -56 951 0 976 -4 924 70 960 33 17 113 18 1250 18 1187 0 1216 -1 1247 -20 66 -40 63 12 63 -955 0 -791 -2 -880 -16 -911 -33 -68 54 -64 -1302 -64 l -1229 0 -27 21 z M 9615 -4530 c -11 4 -31 20 -45 35 l -25 27 -3 901 c -2 891 -2 902 18 935 40 65 -32 62 1296 62 1335 0 1255 4 1292 -64 16 -29 17 -101 17 -921 0 -832 -1 -892 -18 -922 -36 -67 50 -63 -1294 -62 -670 0 -1227 4 -1238 9 z M 3664 -4514 c -68 33 -64 -26 -64 973 l 0 901 34 38 34 37 1242 0 1242 0 34 -37 34 -38 0 -900 c 0 -989 3 -942 -60 -975 -25 -13 -178 -15 -1247 -15 -1064 0 -1222 2 -1249 16 z M 6551 -4504 c -17 14 -35 42 -41 62 -14 51 -14 1733 0 1784 6 20 24 48 41 62 l 31 26 1237 0 c 1360 0 1263 5 1296 -60 23 -44 23 -1796 0 -1840 -33 -64 47 -60 -1304 -60 l -1229 0 -31 26 z M 615 -4498 c -57 44 -55 13 -55 963 0 844 1 877 19 913 11 21 31 43 46 50 20 9 323 12 1260 12 l 1233 0 31 -30 c 17 -17 33 -45 36 -63 3 -18 4 -429 3 -915 l -3 -884 -37 -34 -38 -34 -1234 0 -1233 0 -28 22 z " />
  </g>
</svg>