<?xml version="1.0" encoding="utf-8"?>
<!-- Generator: Adobe Illustrator 27.5.0, SVG Export Plug-In . SVG Version: 6.00 Build 0)  -->
<svg version="1.1"
	 id="svg1303" xmlns:inkscape="http://www.inkscape.org/namespaces/inkscape" xmlns:cc="http://creativecommons.org/ns#" xmlns:dc="http://purl.org/dc/elements/1.1/" xmlns:svg="http://www.w3.org/2000/svg" xmlns:sodipodi="http://sodipodi.sourceforge.net/DTD/sodipodi-0.dtd" xmlns:rdf="http://www.w3.org/1999/02/22-rdf-syntax-ns#"
	 xmlns="http://www.w3.org/2000/svg" xmlns:xlink="http://www.w3.org/1999/xlink" x="0px" y="0px" viewBox="0 0 500 500"
	 style="enable-background:new 0 0 500 500;" xml:space="preserve">
<path d="M473.5,392.9L329.1,250.5l144.3-145.6c21.6-21.6,21.6-57,0-78.6l0,0c-21.6-21.6-57-21.6-78.6,0L250.5,171.9L106.3,26.2
	c-21.6-21.6-57-21.6-78.6,0l0,0C6,47.9,6,83.2,27.6,104.9l144.2,145.6L26.4,393.9c-21.6,21.6-21.6,57,0,78.6l0,0
	c21.6,21.6,57,21.6,78.6,0l145.4-143.4l144.3,142.4c21.6,21.6,57,21.6,78.6,0l0,0C495.1,449.9,495.1,414.6,473.5,392.9z"/>
</svg>
