<?xml version="1.0" encoding="UTF-8"?>
<svg id="Layer_1" xmlns="http://www.w3.org/2000/svg" version="1.1" xmlns:xlink="http://www.w3.org/1999/xlink" viewBox="0 0 1000 1000">
  <!-- Generator: Adobe Illustrator 29.5.0, SVG Export Plug-In . SVG Version: 2.1.0 Build 137)  -->
  <defs>
    <style>
      .st0 {
        fill: #fff;
      }

      .st1 {
        fill: #039a86;
      }

      .st2 {
        fill: none;
      }

      .st3 {
        clip-path: url(#clippath-1);
      }

      .st4 {
        fill: #06131a;
      }

      .st5 {
        clip-path: url(#clippath-3);
      }

      .st6 {
        display: none;
      }

      .st7 {
        clip-path: url(#clippath-2);
      }

      .st8 {
        clip-path: url(#clippath);
      }
    </style>
    <clipPath id="clippath">
      <rect class="st2" x="25.6" y="22.9" width="948.9" height="954.2"/>
    </clipPath>
    <clipPath id="clippath-1">
      <rect class="st2" x="25.6" y="22.9" width="948.9" height="954.2"/>
    </clipPath>
    <clipPath id="clippath-2">
      <rect class="st2" x="25.6" y="22.9" width="948.9" height="954.2"/>
    </clipPath>
    <clipPath id="clippath-3">
      <rect class="st2" x="25.6" y="22.9" width="948.9" height="954.2"/>
    </clipPath>
  </defs>
  <g id="Artwork_1">
    <g class="st8">
      <g class="st3">
        <path class="st1" d="M447.2,22.9v15.2C269.3,59.3,118.8,179.4,58.6,348.1l76,21.8c49.9-135.2,169.9-232.2,312.6-252.7v15.4h35.3s0-109.7,0-109.7h-35.3ZM523,34.5v79.1c142.3,7.7,269.2,91.9,331.7,219.9l-14.8,4.2,9.7,33.7,106.6-30.3-9.7-33.9-14.9,4.3c-73.1-161.9-231-269-408.5-277M957.6,382.9l-75.8,21.7c8.9,32.9,13.6,66.8,13.8,100.8-.2,103.8-41.6,203.3-114.9,276.8l-9.4-12.6-28.6,20.8,11.9,16,46.5,64,6.6,9.1,28.6-20.8-8.8-12.1c93.6-88.8,146.7-212.1,147-341.1-.2-41.4-5.9-82.6-16.8-122.6M35.3,383.5l-9.7,33.9,14,4c-5.3,27.7-8.1,55.8-8.4,84,0,145.5,67.3,282.8,182.1,372.1l46.5-64c-94.4-74.4-149.6-187.9-149.8-308.1.3-20.8,2.2-41.6,5.8-62.1l15.1,4.1,9.7-33.9-17.9-4.9-75.7-21.7-11.6-3.3ZM303.8,820.6l-64.8,88.8,28.6,20.8,8.5-11.7c69.4,38.3,147.4,58.5,226.7,58.7,94.9,0,187.7-28.7,266.1-82.2l-46.6-64.1c-64.8,43.9-141.2,67.3-219.5,67.5-62.6-.3-124.2-15.5-179.8-44.4l9.4-12.6-28.6-20.8Z"/>
        <polygon class="st4" points="114.9 238.4 115.1 324.3 261.3 324.3 261.1 458.5 351.9 458.5 352.1 324.3 495.9 324.3 495.6 238 114.9 238.4"/>
        <rect class="st4" x="261.1" y="554.4" width="90.8" height="200.1"/>
        <polygon class="st4" points="622.7 244.2 429.6 754.5 526.4 754.4 666.6 361.6 806 754.4 902.9 754.4 710.4 244.2 622.7 244.2"/>
        <path class="st1" d="M255.5,476.4c-16.5,0-29.9,13.6-29.9,30.1.2,17.6,16.1,30.1,30,30.1,34.5,0,69.9,0,103.3,0,16.1,0,28.9-14,28.9-30.1,0-16.1-12.2-30.1-28.8-30.1-35.8,0-72.8,0-103.4,0"/>
        <path class="st1" d="M665.5,483.6c-16.1,0-29.8,12.2-29.8,28.8v172l-37.8-38.9-25,24.5,92.2,93.8,94.3-93.8-25-24.5-38.9,38.9c0-23.6,0-40.8,0-68.6-.3-34.5,0-69,0-103.6,0-16.1-13.7-28.6-29.8-28.6h0Z"/>
      </g>
    </g>
  </g>
  <g id="Artwork_2" class="st6">
    <g class="st7">
      <g class="st5">
        <path class="st1" d="M447.2,22.9v15.2C269.3,59.3,118.8,179.4,58.6,348.1l76,21.8c49.9-135.2,169.9-232.2,312.6-252.7v15.4h35.3s0-109.7,0-109.7h-35.3ZM523,34.5v79.1c142.3,7.7,269.2,91.9,331.7,219.9l-14.8,4.2,9.7,33.7,106.6-30.3-9.7-33.9-14.9,4.3c-73.1-161.9-231-269-408.5-277M957.6,382.9l-75.8,21.7c8.9,32.9,13.6,66.8,13.8,100.8-.2,103.8-41.6,203.3-114.9,276.8l-9.4-12.6-28.6,20.8,11.9,16,46.5,64,6.6,9.1,28.6-20.8-8.8-12.1c93.6-88.8,146.7-212.1,147-341.1-.2-41.4-5.9-82.6-16.8-122.6M35.3,383.5l-9.7,33.9,14,4c-5.3,27.7-8.1,55.8-8.4,84,0,145.5,67.3,282.8,182.1,372.1l46.5-64c-94.4-74.4-149.6-187.9-149.8-308.1.3-20.8,2.2-41.6,5.8-62.1l15.1,4.1,9.7-33.9-17.9-4.9-75.7-21.7-11.6-3.3ZM303.8,820.6l-64.8,88.8,28.6,20.8,8.5-11.7c69.4,38.3,147.4,58.5,226.7,58.7,94.9,0,187.7-28.7,266.1-82.2l-46.6-64.1c-64.8,43.9-141.2,67.3-219.5,67.5-62.6-.3-124.2-15.5-179.8-44.4l9.4-12.6-28.6-20.8Z"/>
        <polygon class="st0" points="114.9 238.4 115.1 324.3 261.3 324.3 261.1 458.5 351.9 458.5 352.1 324.3 495.9 324.3 495.6 238 114.9 238.4"/>
        <rect class="st0" x="261.1" y="554.4" width="90.8" height="200.1"/>
        <polygon class="st0" points="622.7 244.2 429.6 754.5 526.4 754.4 666.6 361.6 806 754.4 902.9 754.4 710.4 244.2 622.7 244.2"/>
        <path class="st1" d="M255.5,476.4c-16.5,0-29.9,13.6-29.9,30.1.2,17.6,16.1,30.1,30,30.1,34.5,0,69.9,0,103.3,0,16.1,0,28.9-14,28.9-30.1,0-16.1-12.2-30.1-28.8-30.1-35.8,0-72.8,0-103.4,0"/>
        <path class="st1" d="M665.5,483.6c-16.1,0-29.8,12.2-29.8,28.8v172l-37.8-38.9-25,24.5,92.2,93.8,94.3-93.8-25-24.5-38.9,38.9c0-23.6,0-40.8,0-68.6-.3-34.5,0-69,0-103.6,0-16.1-13.7-28.6-29.8-28.6h0Z"/>
      </g>
    </g>
  </g>
</svg>