<?xml version="1.0" standalone="no"?>
<!DOCTYPE svg PUBLIC "-//W3C//DTD SVG 20010904//EN"
 "http://www.w3.org/TR/2001/REC-SVG-20010904/DTD/svg10.dtd">
<svg version="1.0" xmlns="http://www.w3.org/2000/svg"
 width="1000.000000pt" height="1000.000000pt" viewBox="0 0 1000.000000 1000.000000"
 preserveAspectRatio="xMidYMid meet">
<metadata>
Created by potrace 1.14, written by Peter Selinger 2001-2017
</metadata>
<g transform="translate(0.000000,1000.000000) scale(0.100000,-0.100000)"
fill="#000000" stroke="none">
<path d="M4521 9370 c-4 -3 -7 -31 -6 -63 1 -32 -3 -61 -9 -66 -6 -5 -36 -12
-66 -16 -55 -7 -68 -9 -125 -19 -16 -3 -48 -8 -70 -12 -161 -24 -504 -118
-709 -193 -208 -77 -507 -215 -636 -294 -19 -12 -47 -29 -62 -37 -14 -8 -41
-24 -60 -34 -84 -48 -288 -189 -423 -293 -309 -239 -654 -606 -886 -943 -53
-78 -169 -258 -169 -264 0 -3 -21 -40 -47 -83 -97 -164 -313 -646 -294 -658
14 -8 670 -195 686 -195 8 0 15 9 15 19 0 11 5 23 10 26 6 3 10 13 10 21 0 8
14 44 30 79 17 35 30 67 30 70 0 3 21 48 47 100 l47 95 148 0 c81 0 276 1 433
1 157 0 310 -1 340 -1 l55 0 0 -615 0 -615 415 1 415 0 1 142 c0 78 0 355 1
615 l1 472 46 0 c25 0 322 0 659 0 l612 1 0 32 c1 44 -1 538 -2 660 0 63 -5
97 -12 98 -6 1 -581 1 -1278 0 -698 0 -1268 2 -1268 5 0 7 143 147 241 235 94
85 232 193 329 260 36 24 67 47 68 52 2 4 7 7 12 7 4 0 52 28 106 62 126 79
371 202 510 257 60 23 118 46 129 51 131 56 685 193 713 176 4 -2 7 -34 6 -70
l0 -66 162 0 162 0 0 503 0 502 -155 0 c-85 0 -158 -2 -162 -5z"/>
<path d="M5210 8905 l0 -365 48 -1 c26 0 54 -2 62 -4 8 -1 45 -5 82 -9 72 -6
198 -23 232 -31 12 -3 32 -7 46 -9 284 -48 643 -169 935 -314 527 -262 984
-651 1324 -1127 39 -55 75 -105 81 -112 5 -7 10 -17 10 -23 0 -5 4 -10 9 -10
5 0 14 -12 20 -27 6 -16 24 -48 40 -73 31 -47 61 -101 117 -208 30 -57 32 -65
16 -69 -75 -20 -117 -40 -113 -53 9 -35 83 -285 85 -287 1 -2 18 2 37 8 19 5
41 12 49 14 49 12 856 241 876 249 11 4 10 14 -2 57 -9 29 -17 60 -19 68 -7
32 -53 183 -57 186 -2 2 -22 -2 -43 -9 -93 -31 -88 -33 -126 46 -232 488 -557
933 -950 1303 -285 269 -647 520 -1014 705 -533 268 -1067 412 -1682 455 l-63
4 0 -364z"/>
<path d="M6122 7336 c-4 -6 -14 -31 -23 -56 -17 -47 -238 -630 -288 -760 -16
-41 -61 -160 -100 -265 -40 -104 -76 -199 -80 -210 -10 -23 -54 -138 -104
-275 -20 -52 -41 -108 -48 -125 -7 -16 -13 -32 -13 -35 -1 -3 -7 -18 -13 -35
-6 -16 -55 -145 -108 -285 -53 -140 -102 -271 -110 -290 -8 -19 -48 -125 -89
-235 -41 -110 -90 -240 -109 -290 -19 -49 -76 -200 -127 -335 -133 -356 -151
-402 -166 -437 -8 -17 -14 -34 -14 -37 0 -3 -15 -45 -34 -94 -19 -48 -61 -160
-95 -248 -33 -89 -65 -174 -72 -190 -22 -55 -28 -70 -98 -258 -39 -103 -71
-192 -71 -197 0 -5 182 -8 441 -7 l441 3 114 320 c63 176 126 352 140 390 14
39 46 129 70 200 25 72 50 139 55 150 5 11 22 58 38 105 29 84 89 254 171 480
23 63 47 133 54 155 12 36 70 199 131 365 13 36 60 169 105 295 44 127 85 239
90 250 4 11 62 173 129 360 197 557 186 530 195 504 3 -8 18 -52 35 -99 16
-47 54 -155 84 -240 30 -85 96 -272 146 -415 51 -143 96 -269 100 -280 5 -11
27 -72 49 -135 120 -343 143 -407 152 -422 6 -10 10 -24 10 -33 0 -8 6 -29 14
-47 8 -18 44 -116 80 -218 182 -521 327 -927 336 -942 6 -10 10 -23 10 -29 0
-9 134 -393 176 -502 8 -21 28 -78 45 -128 l31 -90 -49 -56 c-26 -31 -78 -88
-115 -127 -64 -68 -68 -70 -81 -51 -8 11 -28 37 -44 57 l-30 37 -124 -91 c-68
-50 -123 -96 -123 -104 1 -9 281 -404 327 -459 4 -5 62 -84 128 -175 65 -91
124 -166 129 -168 8 -3 73 39 90 58 3 3 42 32 88 64 l82 58 -40 56 -39 56 94
96 c558 566 945 1258 1130 2025 18 77 38 167 44 200 6 33 13 69 15 80 6 33 19
119 21 140 2 11 6 43 9 70 35 253 40 715 11 930 -2 17 -9 75 -15 129 -7 55
-16 109 -20 122 -5 12 -7 24 -5 26 11 11 -85 428 -98 428 -11 0 -680 -190
-685 -195 -2 -1 8 -47 21 -101 14 -55 28 -115 31 -134 3 -19 8 -46 11 -60 10
-53 19 -109 29 -195 4 -33 9 -70 11 -82 8 -53 18 -259 18 -369 -1 -400 -74
-812 -213 -1194 -23 -63 -44 -123 -47 -132 -9 -29 -20 -21 -35 25 -22 62 -198
529 -208 552 -5 11 -69 178 -141 370 -72 193 -187 499 -256 680 -68 182 -164
436 -213 565 -48 129 -93 246 -98 260 -6 14 -27 70 -47 125 -19 55 -40 109
-45 120 -8 18 -191 503 -224 595 -15 42 -95 253 -139 366 l-31 80 -398 0
c-270 0 -401 -3 -406 -10z"/>
<path d="M720 6002 c-47 -160 -68 -237 -64 -243 2 -4 28 -13 56 -19 29 -7 56
-14 59 -16 4 -2 3 -23 -1 -46 -5 -24 -11 -61 -14 -83 -4 -23 -8 -50 -10 -60
-2 -11 -7 -47 -10 -80 -4 -33 -9 -73 -11 -90 -31 -231 -26 -701 11 -955 3 -25
8 -61 10 -80 2 -19 5 -44 8 -55 3 -11 8 -42 12 -70 3 -27 8 -53 10 -56 2 -4 6
-24 10 -45 20 -134 154 -594 209 -719 7 -16 27 -66 45 -110 59 -147 189 -400
297 -579 89 -147 270 -400 359 -502 11 -12 39 -46 64 -75 74 -89 358 -369 465
-459 55 -46 110 -92 121 -102 22 -19 22 -19 107 99 48 65 90 123 94 128 35 42
243 336 242 342 0 5 -38 40 -85 78 -313 258 -611 618 -818 988 -63 114 -176
341 -176 355 0 5 -9 26 -19 48 -54 113 -171 502 -200 669 -6 33 -13 69 -15 80
-8 43 -21 134 -31 210 -19 156 -24 420 -12 605 8 119 13 166 33 295 5 28 7 53
6 58 -2 8 24 3 99 -18 l45 -13 23 82 c12 44 29 106 38 136 30 104 34 95 -54
118 -43 11 -109 29 -148 40 -38 11 -104 30 -145 41 -41 12 -79 23 -85 25 -5 1
-28 8 -50 14 -22 7 -112 33 -200 58 -88 25 -181 52 -207 59 l-48 14 -20 -67z"/>
<path d="M2693 5210 c-48 -11 -119 -56 -148 -95 -112 -146 -57 -352 115 -428
43 -19 68 -20 560 -21 449 -1 521 1 563 15 65 22 114 64 151 129 27 48 31 64
31 130 0 116 -49 200 -149 253 -41 22 -44 22 -566 23 -289 1 -539 -2 -557 -6z"/>
<path d="M6425 5138 c-50 -19 -102 -55 -128 -90 -56 -73 -55 -54 -55 -901 -1
-430 -1 -793 -2 -807 0 -21 -26 1 -169 148 -93 94 -173 172 -178 172 -4 0 -58
-50 -118 -110 l-110 -110 25 -24 c14 -12 202 -204 419 -424 217 -221 397 -402
401 -402 3 0 199 192 435 426 l429 425 -114 114 -115 114 -177 -178 -178 -178
-1 381 c-2 1238 -2 1258 -24 1301 -26 52 -71 98 -126 126 -51 26 -166 35 -214
17z"/>
<path d="M2814 4501 c-2 -2 -4 -415 -4 -918 l0 -913 415 0 415 0 0 28 c4 223
0 1795 -4 1799 -6 7 -816 10 -822 4z"/>
<path d="M3181 2038 c-8 -13 -44 -63 -81 -113 -36 -49 -101 -137 -143 -195
-42 -58 -80 -109 -84 -115 -16 -20 -88 -119 -103 -141 -8 -13 -48 -68 -89
-124 -40 -55 -72 -103 -70 -105 2 -2 60 -44 129 -94 l125 -91 25 32 c62 79 35
81 231 -15 382 -187 717 -298 1149 -382 8 -1 36 -5 61 -9 25 -4 57 -9 70 -11
45 -7 183 -24 264 -32 105 -10 629 -10 725 0 116 13 131 14 195 22 58 7 70 9
125 19 14 3 42 8 63 11 48 7 174 32 252 51 33 8 67 16 76 19 145 33 419 126
599 202 122 52 413 195 418 206 2 4 8 7 12 7 11 0 193 108 273 162 53 36 57
41 45 59 -107 155 -406 558 -415 558 -7 1 -44 -19 -82 -44 -236 -153 -537
-295 -814 -386 -97 -31 -291 -85 -342 -94 -16 -2 -41 -7 -55 -10 -39 -9 -240
-43 -288 -49 -212 -28 -609 -29 -822 -2 -14 2 -52 7 -85 11 -33 4 -69 9 -80
12 -11 2 -33 6 -50 9 -211 34 -520 123 -735 211 -86 36 -291 130 -299 138 -2
3 15 30 38 60 24 31 41 58 39 60 -11 11 -243 178 -252 181 -6 2 -17 -6 -25
-18z"/>
</g>
</svg>
