<?xml version="1.0" encoding="utf-8"?>
<!-- Generator: Adobe Illustrator 26.0.2, SVG Export Plug-In . SVG Version: 6.00 Build 0)  -->
<svg version="1.1" id="Layer_1" xmlns="http://www.w3.org/2000/svg" xmlns:xlink="http://www.w3.org/1999/xlink" x="0px" y="0px"
	 viewBox="0 0 350 75" style="enable-background:new 0 0 350 75;" xml:space="preserve">
<style type="text/css">
	.st0{fill:#FFFFFF;}
	.st1{fill:#2C9D8A;}
</style>
<g id="Layer_1_00000061458428874772671790000018384579824765206440_">
	<g id="archivist">
		<path class="st0" d="M218.5,15.2v4.6c-0.7-0.5-1.5-0.8-2.5-0.8c-1.8,0-3,1.4-3.9,3.1v8.9h-4v-16h4v3c1.1-1.9,2.6-3.3,4.5-3.3
			C217.3,14.7,217.9,14.9,218.5,15.2z"/>
		<path class="st0" d="M233.6,16.3V20c-1.1-0.8-2.4-1.4-4.4-1.4c-2.4,0-4.5,1.9-4.5,4.5c0,2.6,1.9,4.5,4.5,4.5c2,0,3.3-0.6,4.4-1.4
			v3.7c-0.9,0.8-2.3,1.6-4.7,1.6c-4.8,0-8.4-3.9-8.4-8.4c0-4.5,3.6-8.5,8.4-8.5C231.3,14.6,232.7,15.6,233.6,16.3z"/>
		<path class="st0" d="M251.8,21.2v9.8h-4l0-9.3c0-2.2-1.1-3.2-2.9-3.2c-1.4,0-2.7,1.1-3.6,2.3v10.1h-4V8.2h4v9.1
			c1-1.3,2.7-2.7,4.8-2.7C249.3,14.6,251.8,16.9,251.8,21.2z"/>
		<path class="st0" d="M262.1,31.1h-4V18.5h-2.5v-3.4h6.5V31.1z M256.9,10.1c0-1.5,1.2-2.6,2.6-2.6s2.7,1.2,2.7,2.6
			c0,1.5-1.2,2.7-2.7,2.7S256.9,11.6,256.9,10.1z"/>
		<path class="st0" d="M272.2,31.1l-7.5-16h4.7l4,9.9l4.2-9.9h4.7l-7.6,16H272.2z"/>
		<path class="st0" d="M290.8,31.1h-4V18.5h-2.5v-3.4h6.5V31.1z M285.6,10.1c0-1.5,1.2-2.6,2.6-2.6c1.5,0,2.7,1.2,2.7,2.6
			c0,1.5-1.2,2.7-2.7,2.7C286.8,12.8,285.6,11.6,285.6,10.1z"/>
		<path class="st0" d="M305.5,16.1v3.5c-1-0.7-2.5-1.5-4.1-1.5c-1.5,0-2.5,0.8-2.5,1.7c0,0.7,0.4,1.2,1.8,1.7l1.8,0.6
			c2.5,0.7,3.6,2.2,3.6,4.2c0,2.9-2.8,5.1-6.2,5.1c-2.2,0-4.4-0.8-5.5-1.6v-3.5c1.2,0.8,3.4,1.6,4.9,1.6c1.6,0,2.5-0.6,2.5-1.6
			c0-0.8-0.7-1.2-2.1-1.6l-2-0.7c-2.4-0.8-3.2-2.3-3.2-4.3c0-3,2.5-5.1,6.1-5.1C302.7,14.6,304.5,15.3,305.5,16.1z"/>
		<path class="st0" d="M319.8,15.1v3.4h-4.4v6.9c0,1.4,0.7,2.3,2,2.3c1.1,0,1.9-0.3,2.6-0.7v3.2c-0.8,0.8-1.9,1.4-3.8,1.4
			c-2.9,0-4.8-2-4.8-5.2v-8h-2.9v-2.1c2.1-0.7,4.2-2.7,5.2-6h1.7v4.7H319.8z"/>
		<polygon id="A" class="st0" points="183.9,31.1 192.7,8 196.6,8 205.4,31.1 201,31.1 194.7,13.5 188.3,31.1 		"/>
		<path class="st1" d="M197.7,26.2l-1.8,1.6v-5.2v-0.7v-1.8c0-0.8-0.6-1.4-1.3-1.4s-1.3,0.6-1.3,1.4v1.8v0.7v5.2l-1.8-1.6l-1.2,1.2
			l4.3,3.9l4.3-3.9L197.7,26.2z"/>
	</g>
	<g id="tube">
		<g id="T_00000039852614045324270430000005353782644941079486_">
			<polygon class="st0" points="94.7,8.3 94.7,12.3 101.3,12.3 101.3,18.4 105.5,18.4 105.5,12.3 111.9,12.3 111.9,8.3 			"/>
			<rect x="101.3" y="22.6" class="st0" width="4.1" height="9"/>
			<path class="st1" d="M105.8,21.7H101c-0.7,0-1.3-0.6-1.3-1.3l0,0c0-0.7,0.6-1.3,1.3-1.3h4.8c0.7,0,1.3,0.6,1.3,1.3l0,0
				C107.1,21.1,106.5,21.7,105.8,21.7z"/>
		</g>
		<path class="st0" d="M127.4,24.5c0,4.2-3,6.8-7.1,6.8c-4.1,0-7.1-2.6-7.1-6.8v-9.4h4l0,8.7c0,2.4,1.3,3.7,3.1,3.7
			c1.8,0,3.1-1.2,3.1-3.7v-8.7h4V24.5z"/>
		<path class="st0" d="M136,17.3c1-1.8,2.8-3.1,5.2-3.1c3.9,0,7.3,3,7.3,8.4c0,5.4-3.4,8.7-7.5,8.7c-1.8,0-3.7-1-4.9-2.3v1.8h-4.1
			V7.7h4.1V17.3z M136,22.9v2.3c1.2,1.2,2.5,2.1,4.1,2.1c2.5,0,4.1-2.3,4.1-4.7c0-2.4-1.6-4.3-4-4.3C138,18.3,135.9,20,136,22.9z"/>
		<path class="st0" d="M167,24.1h-11.7c0.4,2.2,2.3,3.7,4.8,3.7c2.4,0,3.9-1,4.9-1.6v3.7c-0.9,0.7-2.6,1.6-5.1,1.6
			c-4.8,0-8.7-3.5-8.7-8.4c0-4.7,3.6-8.7,8.2-8.7c4.8,0,7.6,3.3,7.6,8.1V24.1z M163.1,21.5c-0.2-2.3-2-3.5-3.8-3.5
			c-2.1,0-3.5,1.4-3.9,3.5H163.1z"/>
	</g>
	<g id="icon">
		<path class="st1" d="M27.6,33.7l1,0.4l0.5-2l-6.7-2l-0.7,2l0.9,0.4C20.9,44.4,25,54.5,34,61.9l2.9-4
			C29.6,51.4,25.8,43.2,27.6,33.7z"/>
		<path class="st1" d="M41.2,60.5l0.6-0.8L40,58.4L35.7,64l1.8,1.3l0.6-0.7c10.7,5.7,21.9,4.7,31.8-1.5L66.8,59
			C58.3,63.9,49.9,65.3,41.2,60.5z"/>
		<path class="st1" d="M70.8,55.6l-0.7-0.7l-1.8,1.3l4.3,5.9l1.8-1.3L73.9,60c8.7-8.5,11.2-18.7,8.4-30l-4.9,1.4
			C79.3,40.9,78,48.7,70.8,55.6z"/>
		<path class="st1" d="M75.5,26.5l-0.9,0.4l0.6,2.4l7.2-2.1l-0.7-2.4l-0.9,0.3c-5.7-10.7-15-17.4-26.6-17.9v5.4
			C63.8,13.4,70.9,17.6,75.5,26.5z"/>
		<path class="st1" d="M49,12.8l0.1,0.9l2.3-0.1v-7h-2.3v0.9C40,8.8,28.6,14.8,24,27.6l4.9,1.4C32.4,19,40.2,14.7,49,12.8z"/>
		<polygon id="A_00000111884739883312047940000001222474654974762168_" class="st0" points="48,54 60.6,20.9 66.1,20.9 78.8,54 
			72.5,54 63.4,28.8 54.3,54 		"/>
		<g id="T">
			<polygon class="st0" points="27.6,20.4 27.6,26.1 37.1,26.1 37.1,35 43.1,35 43.1,26.1 52.4,26.1 52.4,20.4 			"/>
			<rect x="37.1" y="41" class="st0" width="6" height="13"/>
		</g>
		<path class="st1" d="M43.5,39.7h-6.9c-1,0-1.9-0.8-1.9-1.9l0,0c0-1,0.8-1.9,1.9-1.9h6.9c1,0,1.9,0.8,1.9,1.9l0,0
			C45.4,38.9,44.5,39.7,43.5,39.7z"/>
		<path class="st1" d="M67.8,47l-2.5,2.3v-7.5v-1v-2.5c0-1.1-0.8-2-1.9-2s-1.9,0.9-1.9,2v2.5v1v7.5L58.9,47l-1.7,1.7l6.2,5.6
			l6.1-5.6L67.8,47z"/>
	</g>
</g>
<g id="Layer_2">
	<g>
		<path class="st0" d="M142.1,58c0,6-4.3,9.6-10.1,9.6c-5.8,0-10.1-3.6-10.1-9.6V44.7h5.7l0,12.3c0,3.4,1.8,5.2,4.4,5.2
			c2.6,0,4.4-1.7,4.4-5.2V44.7h5.7V58z"/>
		<path class="st0" d="M154.1,48.5c1.3-2.4,3.8-4.3,7.2-4.3c5.4,0,10,4.1,10,11.6c0,7.4-4.6,12-10.4,12c-2.4,0-5.1-1.3-6.8-3.2V67
			h-5.6V35.2h5.6V48.5z M154.1,56.1v3.2c1.6,1.7,3.4,2.9,5.6,2.9c3.5,0,5.7-3.2,5.7-6.5c0-3.4-2.2-6-5.6-6
			C156.9,49.7,154.1,52.1,154.1,56.1z"/>
		<path class="st0" d="M190.4,46.2v5c-1.4-0.9-3.5-2-5.7-2c-2.1,0-3.4,1.1-3.4,2.4c0,1,0.6,1.7,2.6,2.3l2.5,0.8c3.4,1,5.1,3,5.1,5.9
			c0,4.1-3.9,7.2-8.7,7.2c-3,0-6.1-1.1-7.6-2.3v-4.9c1.7,1.1,4.7,2.3,6.9,2.3c2.3,0,3.5-0.8,3.5-2.3c0-1.2-1-1.6-3-2.3l-2.7-1
			c-3.4-1.1-4.5-3.2-4.5-6.1c0-4.2,3.5-7.1,8.6-7.1C186.6,44.1,189.2,45.1,190.4,46.2z"/>
		<path class="st0" d="M212.9,46.5v5.2c-1.5-1.1-3.4-2-6.1-2c-3.4,0-6.2,2.7-6.2,6.3s2.6,6.3,6.2,6.3c2.7,0,4.6-0.8,6.1-1.9v5.1
			c-1.2,1.1-3.3,2.3-6.6,2.3c-6.7,0-11.7-5.4-11.7-11.7s5-11.9,11.7-11.9C209.7,44.1,211.7,45.5,212.9,46.5z"/>
		<path class="st0" d="M232.5,44.9v6.4c-1-0.7-2.1-1.1-3.4-1.1c-2.6,0-4.2,1.9-5.5,4.4V67h-5.6V44.7h5.6v4.2
			c1.5-2.7,3.6-4.6,6.3-4.6C230.9,44.3,231.7,44.5,232.5,44.9z"/>
		<path class="st0" d="M244.7,67h-5.6V49.5h-3.5v-4.8h9.1V67z M237.5,37.8c0-2,1.6-3.7,3.7-3.7s3.7,1.6,3.7,3.7s-1.7,3.7-3.7,3.7
			S237.5,39.8,237.5,37.8z"/>
		<path class="st0" d="M257,48.5c1.3-2.4,3.8-4.3,7.2-4.3c5.4,0,10,4.1,10,11.6c0,7.4-4.6,12-10.4,12c-2.4,0-5.1-1.3-6.8-3.2V67
			h-5.6V35.2h5.6V48.5z M257,56.1v3.2c1.6,1.7,3.4,2.9,5.6,2.9c3.5,0,5.7-3.2,5.7-6.5c0-3.4-2.2-6-5.6-6
			C259.8,49.7,257,52.1,257,56.1z"/>
		<path class="st0" d="M299.8,57.6h-16.2c0.6,3.1,3.1,5,6.5,5c3.3,0,5.4-1.4,6.8-2.3v5.1c-1.2,0.9-3.6,2.3-7,2.3
			c-6.6,0-12-4.9-12-11.6c0-6.5,5-12,11.3-12c6.6,0,10.5,4.6,10.5,11.1V57.6z M294.4,54c-0.2-3.2-2.7-4.8-5.3-4.8
			c-2.9,0-4.8,1.9-5.4,4.8H294.4z"/>
		<path class="st0" d="M319.5,44.9v6.4c-1-0.7-2.1-1.1-3.4-1.1c-2.6,0-4.2,1.9-5.5,4.4V67H305V44.7h5.6v4.2c1.5-2.7,3.6-4.6,6.3-4.6
			C317.9,44.3,318.7,44.5,319.5,44.9z"/>
	</g>
	<g>
		<path class="st0" d="M102.6,54l2.4,0.9v-6.1c0-0.2,0-0.3,0.1-0.5c-1.2-0.6-1.9-1.4-1.9-2.6c0-2.3,2.6-3.2,4.9-3.2
			c3.1,0,5.4,1.3,7.5,2.7v-6.1c-1.9-1.2-4.8-2.3-8.3-2.3c-5.5,0-10.5,3.5-10.5,9C96.7,49.3,98,52.3,102.6,54z"/>
		<path class="st0" d="M111.1,51l-1.9-0.8v6.6c0.8,0.5,1.3,1.2,1.3,2.1c0,1.9-2,2.9-4.5,2.9c-3.5,0-6.7-1.5-9.3-3.4v6.1
			c2.4,1.7,5.7,3.1,9.2,3.1c6.1,0,11.2-3.8,11.2-9C117.2,55.3,115.3,52.8,111.1,51z"/>
	</g>
</g>
<path class="st1" d="M105.5,56.1v-6.9c0-1,0.8-1.9,1.6-1.9l0,0c0.9,0,1.6,0.9,1.6,1.9v6.9c0,1-0.8,1.9-1.6,1.9l0,0
	C106.2,58,105.5,57.1,105.5,56.1z"/>
</svg>
