<?xml version="1.0" encoding="utf-8"?>
<!-- Generator: Adobe Illustrator 26.0.2, SVG Export Plug-In . SVG Version: 6.00 Build 0)  -->
<svg version="1.1" id="Layer_1" xmlns="http://www.w3.org/2000/svg" xmlns:xlink="http://www.w3.org/1999/xlink" x="0px" y="0px"
	 viewBox="0 0 374.4 375.1" style="enable-background:new 0 0 374.4 375.1;" xml:space="preserve">
<style type="text/css">
	.st0{fill:#FFFFFF;}
</style>
<path class="st0" d="M187.5,0C84.2-0.1,0.1,83.8,0,187.2C-0.2,290.8,83.7,375,187.1,375.1c103.3,0,187.2-83.9,187.3-187.4
	C374.5,84.3,290.7,0.2,187.5,0z M187.9,304.5c-16,0-29.2-13.3-29.2-29.3c0.1-16,13.2-29,29.1-29.1c16,0,29.2,13.3,29.2,29.3
	C216.9,291.4,203.8,304.5,187.9,304.5z M238.2,195.7c-4.8,2.9-9.7,5.8-14.5,8.7c-9.1,5.5-13.6,13.6-13.9,24.2c0,0.8,0,1.7,0,2.7
	c-14.6,0-29,0-43.8,0c0.1-2.8,0.2-5.6,0.4-8.5c0.8-10.6,3.2-20.9,8.4-30.3c5.9-11,14.9-18.9,25.5-25.1c4.1-2.4,8.4-4.7,12.5-7.1
	c12.7-7.7,13.1-19.1,6.2-29.9c-6.5-10.3-16.3-14.9-28.1-15.7c-8-0.5-15.7,0.7-22.6,4.9c-10.1,6.2-15,15.6-16.9,26.9
	c-0.1,0.4-0.1,0.9-0.2,1.6c-14.5-1.9-28.9-3.8-43.9-5.8c1.4-5.4,2.5-10.8,4.2-15.9c5.2-14.9,13.6-27.8,25.8-38
	c11.1-9.3,23.9-14.7,38.2-16.6c2.3-0.3,4.6-0.6,6.9-1c3.2,0,6.4,0,9.6,0c4.4,0.6,8.9,1.1,13.3,1.9c29.8,5.9,55.4,28.1,61.4,59.3
	C271.5,157.5,260.7,182.2,238.2,195.7z"/>
</svg>
