<?xml version="1.0" encoding="utf-8"?>
<!-- Generator: Adobe Illustrator 26.0.2, SVG Export Plug-In . SVG Version: 6.00 Build 0)  -->
<svg version="1.1" id="Layer_1" xmlns="http://www.w3.org/2000/svg" xmlns:xlink="http://www.w3.org/1999/xlink" x="0px" y="0px"
	 viewBox="0 0 384 384" style="enable-background:new 0 0 384 384;" xml:space="preserve">
<style type="text/css">
	.st0{fill:#FFFFFF;}
</style>
<g>
	<path class="st0" d="M191.57,379.5C88.15,379.44,4.32,295.25,4.46,191.57C4.6,88.18,88.66,4.28,191.95,4.42
		c103.29,0.14,187.02,84.23,186.93,187.72C378.8,295.6,294.86,379.55,191.57,379.5z M244.55,271.24
		c4.89,5.91,9.44,11.19,13.73,16.69c1.8,2.32,3.72,3.11,6.64,2.93c28.39-1.75,53.17-11.56,72.96-32.55c1.12-1.19,2.08-3.2,1.97-4.76
		c-0.79-11.71-1.27-23.48-2.97-35.07c-5.07-34.65-16.23-67.36-32.74-98.23c-0.73-1.36-1.88-2.67-3.15-3.55
		c-19.34-13.43-40.61-21.62-64.16-23.63c-3.19-0.27-5.5,0.48-6.89,3.09c10.27,3.97,20.59,7.65,30.65,11.94
		c10.1,4.32,19.64,9.74,28.21,16.92c-64.82-29.49-129.53-29.49-194.34,0.02c17.77-13.75,38.02-22.07,59.27-28.39
		c-1.74-3.15-4.12-3.86-7.32-3.58c-23.15,2.02-44.13,9.94-63.2,23.08c-1.76,1.21-3.51,2.96-4.4,4.86
		c-5.36,11.39-11.02,22.69-15.57,34.41c-12.22,31.43-19.35,64-19.75,97.86c-0.02,1.71,0.88,3.85,2.07,5.1
		c18.74,19.74,41.98,29.72,68.88,32.19c5.73,0.53,9.64-0.46,12.96-5.26c3.36-4.86,7.35-9.28,11.2-14.05
		c-22.46-8.05-39.37-18.53-42.93-26.17c63.97,36.11,128.17,36.13,192.51-0.02C276.69,258.45,261.71,265.95,244.55,271.24z"/>
	<path class="st0" d="M237.28,232.74c-14.34-0.02-26.07-12-25.9-26.45c0.17-14.67,11.86-26.25,26.56-26.33
		c13.63-0.07,25.18,12,25.21,26.35C263.18,220.98,251.66,232.76,237.28,232.74z"/>
	<path class="st0" d="M146.11,232.74c-14.35,0.05-25.9-11.7-25.92-26.38c-0.02-14.3,11.56-26.46,25.16-26.41
		c14.85,0.06,26.74,11.96,26.62,26.66C171.84,221.04,160.32,232.69,146.11,232.74z"/>
</g>
</svg>
