<?xml version="1.0" encoding="utf-8"?>
<!-- Generator: Adobe Illustrator 26.0.2, SVG Export Plug-In . SVG Version: 6.00 Build 0)  -->
<svg version="1.1" id="Layer_1" xmlns="http://www.w3.org/2000/svg" xmlns:xlink="http://www.w3.org/1999/xlink" x="0px" y="0px"
	 viewBox="0 0 384 384" style="enable-background:new 0 0 384 384;" xml:space="preserve">
<style type="text/css">
	.st0{fill:#FFFFFF;}
</style>
<g>
	<path class="st0" d="M244.51,375.15c0-10.59-0.31-21.12,0.08-31.61c0.5-13.65,0.02-26.89-10.41-37.88
		c8.18-2.06,15.59-3.84,22.95-5.83c3.51-0.95,6.95-2.22,10.37-3.47c27.26-9.99,40.88-31.15,45.79-58.73
		c2.71-15.21,4.11-30.82-0.74-45.88c-2.65-8.23-6.01-16.69-11.08-23.5c-3.83-5.14-3.43-9.05-2.23-14.27
		c2.86-12.48,0.71-24.71-2.64-36.79c-0.99-3.58-3.09-4.99-6.88-4.6c-11.45,1.18-21.48,6.12-31.34,11.6
		c-1.42,0.79-2.97,1.46-4.16,2.52c-5.55,4.99-11.4,5.13-18.58,3.42c-25.28-6.04-50.67-5.14-75.85,1.12
		c-3.59,0.89-6.27,0.27-9.31-1.86c-11.08-7.73-22.87-14.02-36.37-16.31c-0.13-0.02-0.26-0.07-0.4-0.09
		c-7.12-1.23-8.12-0.76-10.11,6.16c-3.51,12.23-5.18,24.6-1.55,37.14c1.14,3.94,0.44,7.16-2.01,10.61
		c-23.14,32.46-16.36,80.65,0.11,103.41c12.16,16.81,29.02,26.2,48.63,31.06c5.49,1.36,11.11,2.15,17.1,3.28
		c-0.24,0.79-0.43,1.81-0.85,2.71c-3.15,6.91-6.27,13.83-9.6,20.65c-0.67,1.38-2.06,3.14-3.34,3.35c-7.3,1.18-14.65,2.46-22.02,2.7
		c-6.5,0.21-12.09-3.32-16.37-8c-5.11-5.59-9.65-11.73-14.19-17.83c-6.07-8.15-14.2-12.42-24.05-13.3c-2.22-0.2-4.58,1.12-7.99,2.05
		c2.69,3.23,4.46,6.17,6.96,8.2c10.32,8.35,17.42,19.1,22.26,31.24c4.72,11.85,14.1,16.55,25.31,19.27
		c9.24,2.24,18.51,1.5,27.83,0.78c6.07-0.47,6.09-0.22,6.09,5.98c0.01,5.58,0,11.17,0,16.81C86.7,368.22,7.24,301.96,4.67,198.28
		C2.19,97.88,77.65,13.69,175.94,5.34c103.69-8.81,192.95,68.52,202.14,171.23C387.22,278.72,317.17,355.78,244.51,375.15z"/>
</g>
</svg>
