<?xml version="1.0" encoding="utf-8"?>
<!-- Generator: Adobe Illustrator 26.0.2, SVG Export Plug-In . SVG Version: 6.00 Build 0)  -->
<svg version="1.1" id="Layer_1" xmlns="http://www.w3.org/2000/svg" xmlns:xlink="http://www.w3.org/1999/xlink" x="0px" y="0px"
	 viewBox="0 0 384 384" style="enable-background:new 0 0 384 384;" xml:space="preserve">
<style type="text/css">
	.st0{fill:#FFFFFF;}
</style>
<g>
	<path class="st0" d="M240.82,274c-3.86,3.78-8.45,6.33-13.43,8.26c-9.77,3.79-19.98,5.34-30.38,5.85
		c-5.42,0.26-10.85,0.12-16.26-0.44c-5.89-0.61-11.72-1.56-17.42-3.18c-7.65-2.17-14.86-5.18-20.68-10.86
		c-0.98-0.96-2.26-1.44-3.64-1.48c-2.72-0.08-4.71,1.17-5.94,3.55c-1.14,2.2-0.8,4.87,0.94,6.7c1.28,1.35,2.7,2.59,4.17,3.73
		c5.88,4.57,12.58,7.49,19.65,9.63c11.11,3.37,22.52,4.66,36.04,4.85c2.63-0.18,7.2-0.42,11.76-0.82c6.75-0.6,13.38-1.86,19.88-3.8
		c6.56-1.95,12.83-4.56,18.42-8.57c1.94-1.4,3.82-2.93,5.52-4.61c2.44-2.4,2.35-6.62,0.01-8.95
		C247.1,271.52,243.37,271.51,240.82,274z"/>
	<path class="st0" d="M192.39,4.72C89.03,4.5,5.07,88.18,4.86,191.61c-0.21,103.43,83.4,187.46,186.75,187.67
		c103.35,0.21,187.31-83.46,187.53-186.89C379.36,88.96,295.74,4.93,192.39,4.72z M327.66,225.47c0.14,1.32,0.27,2.64,0.41,3.96
		c0.53,4.98,0.43,9.96-0.23,14.91c-2.24,16.85-10.03,30.98-21.45,43.28c-8.94,9.62-19.42,17.22-30.95,23.42
		c-13.96,7.52-28.79,12.64-44.3,15.87c-8.46,1.76-17,2.91-25.62,3.51c-6.58,0.46-13.16,0.6-19.75,0.39
		c-6.8-0.22-13.58-0.8-20.34-1.72c-11.93-1.64-23.6-4.38-34.96-8.39c-14.15-4.99-27.38-11.73-39.34-20.86
		c-9.74-7.44-18.15-16.12-24.63-26.59c-5.11-8.26-8.64-17.14-10.2-26.75c-1.1-6.76-1.23-13.55-0.14-20.33c0.03-0.21,0-0.44,0-0.7
		c-10.51-5.25-17.19-13.54-19.32-25.14c-1.71-9.32,0.32-17.97,5.8-25.72c11.73-16.6,35.97-19.53,51.41-4.96
		c27.77-19.23,59-27.5,92.46-28.92c0.46-2.12,0.92-4.2,1.36-6.28c3.46-16.26,6.92-32.53,10.37-48.79
		c1.82-8.57,3.63-17.14,5.43-25.71c0.26-1.23,0.59-2.42,1.44-3.4c1.68-1.92,3.83-2.34,6.2-1.85c6.31,1.3,12.62,2.66,18.92,3.99
		c10.35,2.19,20.7,4.39,31.05,6.59c2,0.42,4,0.84,6.09,1.28c3.7-6.86,9.29-11.3,16.92-12.93c5.54-1.19,10.89-0.41,15.96,2.14
		c10.03,5.06,15.32,16.56,12.65,27.42c-2.74,11.12-12.68,18.73-24.01,18.65c-11.69-0.08-23.34-9.38-24.16-23.21
		c-1.43-0.6-49.41-10.81-50.5-10.7c-5.15,24.12-10.32,48.27-15.51,72.57c0.64,0.04,1.07,0.07,1.51,0.09
		c19.74,0.93,38.91,4.68,57.37,11.79c11.05,4.25,21.5,9.64,31.21,16.44c0.29,0.2,0.6,0.38,0.94,0.59
		c8.62-7.75,18.62-11.01,30.07-8.89c9.47,1.76,16.97,6.78,22.22,14.87c5.67,8.73,7.06,18.26,4.21,28.25
		C343.42,213.65,337.03,220.82,327.66,225.47z"/>
	<path class="st0" d="M162.26,218.68c0.08-13.49-10.62-24.33-24.09-24.41c-13.86,0-24.09,11.31-24.22,23.89
		c-0.13,12.52,9.75,24.24,23.96,24.42C151.22,242.73,162.19,231.9,162.26,218.68z"/>
	<path class="st0" d="M245.16,194.56c-13.42,0.03-24.09,10.83-24.11,24.24c-0.02,12.58,10.14,24.01,24.17,24.05
		c13.33,0.04,24.16-10.89,24.12-24.26C269.32,205.3,258.48,194.52,245.16,194.56z"/>
</g>
</svg>
